M48
; DRILL file {KiCad 9.0.0} date 2025-03-18T14:26:57+0100
; FORMAT={-:-/ absolute / metric / decimal}
; #@! TF.CreationDate,2025-03-18T14:26:57+01:00
; #@! TF.GenerationSoftware,Kicad,Pcbnew,9.0.0
; #@! TF.FileFunction,Plated,1,2,PTH
FMAT,2
METRIC
; #@! TA.AperFunction,Plated,PTH,ViaDrill
T1C0.800
; #@! TA.AperFunction,Plated,PTH,ComponentDrill
T2C0.800
; #@! TA.AperFunction,Plated,PTH,ComponentDrill
T3C1.000
%
G90
G05
T1
X125.0Y-92.5
X128.5Y-54.5
X132.179Y-53.179
X153.0Y-71.0
X153.0Y-76.5
X153.0Y-92.5
X156.0Y-53.0
X160.5Y-53.0
X160.5Y-53.0
T2
X107.5Y-73.5
X107.5Y-77.5
X109.0Y-84.5
X112.5Y-72.5
X112.5Y-77.5
X113.0Y-84.5
X116.69Y-54.74
X116.69Y-62.26
X119.23Y-54.74
X119.23Y-62.26
X119.5Y-73.5
X119.5Y-77.5
X121.77Y-54.74
X121.77Y-62.26
X124.31Y-54.74
X124.31Y-62.26
X127.0Y-72.42
X127.0Y-74.96
X127.0Y-77.5
X127.0Y-80.04
X128.0Y-63.5
X128.0Y-68.0
X132.0Y-63.5
X132.46Y-56.5
X133.0Y-68.0
X134.52Y-72.42
X134.52Y-74.96
X134.52Y-77.5
X134.52Y-80.04
X135.0Y-56.5
X137.54Y-56.5
X140.08Y-56.5
X142.62Y-56.5
X144.5Y-89.0
X145.0Y-84.0
X145.16Y-56.5
X148.0Y-66.0
X148.0Y-71.0
X149.0Y-84.0
X149.5Y-89.0
X160.0Y-81.92
X160.0Y-84.46
X160.0Y-87.0
X160.0Y-89.54
T3
X102.5Y-82.0
X102.5Y-84.54
X102.525Y-73.5
X102.525Y-76.04
X118.796Y-49.2
X121.336Y-49.2
X123.876Y-49.2
X126.416Y-49.2
X127.94Y-97.46
X128.956Y-49.2
X130.48Y-97.46
X131.496Y-49.2
X133.02Y-97.46
X134.036Y-49.2
X135.56Y-97.46
X136.576Y-49.2
X138.1Y-97.46
X139.116Y-49.2
X140.64Y-97.46
X141.656Y-49.2
X143.18Y-97.46
X145.72Y-49.2
X145.72Y-97.46
X148.26Y-49.2
X150.8Y-49.2
X150.8Y-97.46
X153.34Y-49.2
X153.34Y-97.46
X155.88Y-49.2
X155.88Y-97.46
X158.42Y-49.2
X158.42Y-97.46
X159.0Y-57.96
X159.0Y-60.5
X159.0Y-63.04
X159.0Y-65.58
X159.0Y-68.12
X160.96Y-49.2
X160.96Y-97.46
X163.5Y-49.2
X163.5Y-97.46
M30
