%TF.GenerationSoftware,KiCad,Pcbnew,9.0.0*%
%TF.CreationDate,2025-03-18T10:52:27+01:00*%
%TF.ProjectId,Sheild UNO M&M,53686569-6c64-4205-954e-4f204d264d2e,rev?*%
%TF.SameCoordinates,Original*%
%TF.FileFunction,Copper,L2,Bot*%
%TF.FilePolarity,Positive*%
%FSLAX46Y46*%
G04 Gerber Fmt 4.6, Leading zero omitted, Abs format (unit mm)*
G04 Created by KiCad (PCBNEW 9.0.0) date 2025-03-18 10:52:27*
%MOMM*%
%LPD*%
G01*
G04 APERTURE LIST*
%TA.AperFunction,ComponentPad*%
%ADD10R,2.540000X2.000000*%
%TD*%
%TA.AperFunction,ComponentPad*%
%ADD11O,2.540000X2.000000*%
%TD*%
%TA.AperFunction,ComponentPad*%
%ADD12R,2.000000X2.540000*%
%TD*%
%TA.AperFunction,ComponentPad*%
%ADD13O,2.000000X2.540000*%
%TD*%
%TA.AperFunction,ComponentPad*%
%ADD14C,2.540000*%
%TD*%
%TA.AperFunction,ComponentPad*%
%ADD15R,2.000000X1.200000*%
%TD*%
%TA.AperFunction,ComponentPad*%
%ADD16O,2.000000X1.200000*%
%TD*%
%TA.AperFunction,ComponentPad*%
%ADD17R,2.000000X2.400000*%
%TD*%
%TA.AperFunction,ComponentPad*%
%ADD18O,2.000000X2.400000*%
%TD*%
%TA.AperFunction,ViaPad*%
%ADD19C,1.600000*%
%TD*%
%TA.AperFunction,ViaPad*%
%ADD20C,2.000000*%
%TD*%
%TA.AperFunction,Conductor*%
%ADD21C,0.600000*%
%TD*%
%TA.AperFunction,Conductor*%
%ADD22C,0.500000*%
%TD*%
%TA.AperFunction,Conductor*%
%ADD23C,1.000000*%
%TD*%
G04 APERTURE END LIST*
D10*
%TO.P,U4,1*%
%TO.N,N/C*%
X127000000Y-72420000D03*
D11*
%TO.P,U4,2,-*%
%TO.N,R2*%
X127000000Y-74960000D03*
%TO.P,U4,3,+*%
%TO.N,Net-(U4-+)*%
X127000000Y-77500000D03*
%TO.P,U4,4,V-*%
%TO.N,GND*%
X127000000Y-80040000D03*
%TO.P,U4,5,Ext_Clock*%
%TO.N,unconnected-(U4-Ext_Clock-Pad5)*%
X134520000Y-80040000D03*
%TO.P,U4,6*%
%TO.N,Net-(C4-Pad2)*%
X134520000Y-77500000D03*
%TO.P,U4,7,V+*%
%TO.N,5V*%
X134520000Y-74960000D03*
%TO.P,U4,8,NC*%
%TO.N,unconnected-(U4-NC-Pad8)*%
X134520000Y-72420000D03*
%TD*%
D12*
%TO.P,J1,1,Pin_1*%
%TO.N,unconnected-(J1-Pin_1-Pad1)*%
X127940000Y-97460000D03*
D13*
%TO.P,J1,2,Pin_2*%
%TO.N,/IOREF*%
X130480000Y-97460000D03*
%TO.P,J1,3,Pin_3*%
%TO.N,/~{RESET}*%
X133020000Y-97460000D03*
%TO.P,J1,4,Pin_4*%
%TO.N,+3V3*%
X135560000Y-97460000D03*
%TO.P,J1,5,Pin_5*%
%TO.N,5V*%
X138100000Y-97460000D03*
%TO.P,J1,6,Pin_6*%
%TO.N,GND*%
X140640000Y-97460000D03*
%TO.P,J1,7,Pin_7*%
X143180000Y-97460000D03*
%TO.P,J1,8,Pin_8*%
%TO.N,VCC*%
X145720000Y-97460000D03*
%TD*%
D12*
%TO.P,J2,1,Pin_1*%
%TO.N,AmpOut*%
X150800000Y-97460000D03*
D13*
%TO.P,J2,2,Pin_2*%
%TO.N,A1*%
X153340000Y-97460000D03*
%TO.P,J2,3,Pin_3*%
%TO.N,/A2*%
X155880000Y-97460000D03*
%TO.P,J2,4,Pin_4*%
%TO.N,/A3*%
X158420000Y-97460000D03*
%TO.P,J2,5,Pin_5*%
%TO.N,SDA*%
X160960000Y-97460000D03*
%TO.P,J2,6,Pin_6*%
%TO.N,SCL*%
X163500000Y-97460000D03*
%TD*%
D10*
%TO.P,J3,1,Pin_1*%
%TO.N,SCL*%
X118796000Y-49200000D03*
D13*
%TO.P,J3,2,Pin_2*%
%TO.N,SDA*%
X121336000Y-49200000D03*
%TO.P,J3,3,Pin_3*%
%TO.N,/AREF*%
X123876000Y-49200000D03*
%TO.P,J3,4,Pin_4*%
%TO.N,GND*%
X126416000Y-49200000D03*
%TO.P,J3,5,Pin_5*%
%TO.N,SCK*%
X128956000Y-49200000D03*
%TO.P,J3,6,Pin_6*%
%TO.N,/12*%
X131496000Y-49200000D03*
%TO.P,J3,7,Pin_7*%
%TO.N,SI*%
X134036000Y-49200000D03*
%TO.P,J3,8,Pin_8*%
%TO.N,CS*%
X136576000Y-49200000D03*
%TO.P,J3,9,Pin_9*%
%TO.N,/\u002A9*%
X139116000Y-49200000D03*
%TO.P,J3,10,Pin_10*%
%TO.N,/8*%
X141656000Y-49200000D03*
%TD*%
D12*
%TO.P,J4,1,Pin_1*%
%TO.N,Rx*%
X145720000Y-49200000D03*
D13*
%TO.P,J4,2,Pin_2*%
%TO.N,Tx*%
X148260000Y-49200000D03*
%TO.P,J4,3,Pin_3*%
%TO.N,SW*%
X150800000Y-49200000D03*
%TO.P,J4,4,Pin_4*%
%TO.N,DT*%
X153340000Y-49200000D03*
%TO.P,J4,5,Pin_5*%
%TO.N,/\u002A3*%
X155880000Y-49200000D03*
%TO.P,J4,6,Pin_6*%
%TO.N,CLK*%
X158420000Y-49200000D03*
%TO.P,J4,7,Pin_7*%
%TO.N,/TX{slash}1*%
X160960000Y-49200000D03*
%TO.P,J4,8,Pin_8*%
%TO.N,/RX{slash}0*%
X163500000Y-49200000D03*
%TD*%
D14*
%TO.P,R7,1*%
%TO.N,A1*%
X109000000Y-84500000D03*
%TO.P,R7,2*%
%TO.N,GND*%
X113000000Y-84500000D03*
%TD*%
%TO.P,C2,1*%
%TO.N,AmpOut*%
X149500000Y-89000000D03*
%TO.P,C2,2*%
%TO.N,GND*%
X144500000Y-89000000D03*
%TD*%
D15*
%TO.P,DS1,1,GND*%
%TO.N,GND*%
X160000000Y-81920000D03*
D16*
%TO.P,DS1,2,VCC*%
%TO.N,5V*%
X160000000Y-84460000D03*
%TO.P,DS1,3,SCL*%
%TO.N,SCL*%
X160000000Y-87000000D03*
%TO.P,DS1,4,SDA*%
%TO.N,SDA*%
X160000000Y-89540000D03*
%TD*%
D14*
%TO.P,R6,1*%
%TO.N,Net-(C4-Pad2)*%
X145000000Y-84000000D03*
%TO.P,R6,2*%
%TO.N,AmpOut*%
X149000000Y-84000000D03*
%TD*%
D11*
%TO.P,J6,1,Pin_1*%
%TO.N,Net-(J6-Pin_1)*%
X102525000Y-73500000D03*
%TO.P,J6,2,Pin_2*%
%TO.N,5V*%
X102525000Y-76040000D03*
%TD*%
D14*
%TO.P,C4,1*%
%TO.N,R2*%
X128000000Y-68000000D03*
%TO.P,C4,2*%
%TO.N,Net-(C4-Pad2)*%
X133000000Y-68000000D03*
%TD*%
%TO.P,R5,1*%
%TO.N,Net-(J6-Pin_1)*%
X107500000Y-73500000D03*
%TO.P,R5,2*%
%TO.N,Net-(U4-+)*%
X107500000Y-77500000D03*
%TD*%
%TO.P,R3,1*%
%TO.N,R2*%
X128000000Y-63500000D03*
%TO.P,R3,2*%
%TO.N,Net-(C4-Pad2)*%
X132000000Y-63500000D03*
%TD*%
D11*
%TO.P,J5,1,Pin_1*%
%TO.N,A1*%
X102500000Y-84540000D03*
%TO.P,J5,2,Pin_2*%
%TO.N,5V*%
X102500000Y-82000000D03*
%TD*%
D14*
%TO.P,C5,1*%
%TO.N,CLK*%
X148000000Y-66000000D03*
%TO.P,C5,2*%
%TO.N,GND*%
X148000000Y-71000000D03*
%TD*%
%TO.P,R1,1*%
%TO.N,Net-(U4-+)*%
X119500000Y-77500000D03*
%TO.P,R1,2*%
%TO.N,GND*%
X119500000Y-73500000D03*
%TD*%
D12*
%TO.P,U2,1,~{CS}*%
%TO.N,CS*%
X124310000Y-54740000D03*
D13*
%TO.P,U2,2,SCK*%
%TO.N,SCK*%
X121770000Y-54740000D03*
%TO.P,U2,3,SI*%
%TO.N,SI*%
X119230000Y-54740000D03*
%TO.P,U2,4,VSS*%
%TO.N,GND*%
X116690000Y-54740000D03*
%TO.P,U2,5,PA0*%
X116690000Y-62260000D03*
%TO.P,U2,6,PW0*%
X119230000Y-62260000D03*
%TO.P,U2,7,PB0*%
%TO.N,R2*%
X121770000Y-62260000D03*
%TO.P,U2,8,VDD*%
%TO.N,5V*%
X124310000Y-62260000D03*
%TD*%
D11*
%TO.P,1,1,CLK*%
%TO.N,CLK*%
X159000000Y-57960000D03*
%TO.P,1,2,DT*%
%TO.N,DT*%
X159000000Y-60500000D03*
%TO.P,1,3,SW*%
%TO.N,SW*%
X159000000Y-63040000D03*
%TO.P,1,4,+*%
%TO.N,5V*%
X159000000Y-65580000D03*
%TO.P,1,5,GND*%
%TO.N,GND*%
X159000000Y-68120000D03*
%TD*%
D14*
%TO.P,C1,1*%
%TO.N,Net-(U4-+)*%
X112500000Y-77500000D03*
%TO.P,C1,2*%
%TO.N,GND*%
X112500000Y-72500000D03*
%TD*%
D17*
%TO.P,U1,1,Enable/Key*%
%TO.N,unconnected-(U1-Enable{slash}Key-Pad1)*%
X145160000Y-56500000D03*
D18*
%TO.P,U1,2,VCC*%
%TO.N,5V*%
X142620000Y-56500000D03*
%TO.P,U1,3,GND*%
%TO.N,GND*%
X140080000Y-56500000D03*
%TO.P,U1,4,Tx*%
%TO.N,Tx*%
X137540000Y-56500000D03*
%TO.P,U1,5,Rx*%
%TO.N,Rx*%
X135000000Y-56500000D03*
%TO.P,U1,6,STATE*%
%TO.N,unconnected-(U1-STATE-Pad6)*%
X132460000Y-56500000D03*
%TD*%
D19*
%TO.N,CS*%
X132178661Y-53178661D03*
X128500000Y-54500000D03*
D20*
%TO.N,GND*%
X153000000Y-76500000D03*
X153000000Y-71000000D03*
%TO.N,DT*%
X156000000Y-53000000D03*
X160500000Y-53000000D03*
X160500000Y-53000000D03*
%TO.N,A1*%
X153000000Y-92500000D03*
X125000000Y-92500000D03*
%TD*%
D21*
%TO.N,SI*%
X134000000Y-51500000D02*
X134036000Y-51464000D01*
X131734587Y-51500000D02*
X134000000Y-51500000D01*
X130000000Y-53234587D02*
X131734587Y-51500000D01*
X119230000Y-56230000D02*
X120000000Y-57000000D01*
X134036000Y-51464000D02*
X134036000Y-49200000D01*
X129000000Y-57000000D02*
X130000000Y-56000000D01*
X119230000Y-54740000D02*
X119230000Y-56230000D01*
X120000000Y-57000000D02*
X129000000Y-57000000D01*
X130000000Y-56000000D02*
X130000000Y-53234587D01*
%TO.N,CS*%
X136576000Y-51424000D02*
X136576000Y-49200000D01*
X134821339Y-53178661D02*
X136576000Y-51424000D01*
X132178661Y-53178661D02*
X134821339Y-53178661D01*
%TO.N,DT*%
X153340000Y-50340000D02*
X153340000Y-49200000D01*
X156000000Y-53000000D02*
X153340000Y-50340000D01*
%TO.N,SW*%
X150800000Y-50300000D02*
X150800000Y-49200000D01*
X156704398Y-56204398D02*
X150800000Y-50300000D01*
X156704398Y-58704397D02*
X156704398Y-56204398D01*
X154500000Y-60908795D02*
X156704398Y-58704397D01*
X154500000Y-61000000D02*
X154500000Y-60908795D01*
X152000000Y-63500000D02*
X154500000Y-61000000D01*
X146500000Y-63500000D02*
X152000000Y-63500000D01*
X144500000Y-66500000D02*
X144500000Y-65500000D01*
X156960000Y-63040000D02*
X151500000Y-68500000D01*
X144500000Y-65500000D02*
X146500000Y-63500000D01*
X151500000Y-68500000D02*
X146500000Y-68500000D01*
X159000000Y-63040000D02*
X156960000Y-63040000D01*
X146500000Y-68500000D02*
X144500000Y-66500000D01*
%TO.N,Tx*%
X137540000Y-55960000D02*
X140000000Y-53500000D01*
X137540000Y-56500000D02*
X137540000Y-55960000D01*
%TO.N,Rx*%
X135000000Y-56000000D02*
X135000000Y-56500000D01*
X139000000Y-52000000D02*
X135000000Y-56000000D01*
X139000000Y-52000000D02*
X145000000Y-52000000D01*
%TO.N,5V*%
X142620000Y-58380000D02*
X142620000Y-56500000D01*
X140000000Y-61000000D02*
X142620000Y-58380000D01*
%TO.N,Tx*%
X140000000Y-53500000D02*
X146260000Y-53500000D01*
X137540000Y-55960000D02*
X137540000Y-57000000D01*
%TO.N,Rx*%
X135000000Y-55500000D02*
X135000000Y-57000000D01*
%TO.N,CS*%
X128260000Y-54740000D02*
X128500000Y-54500000D01*
X124310000Y-54740000D02*
X128260000Y-54740000D01*
%TO.N,5V*%
X146000000Y-73399258D02*
X142600742Y-70000000D01*
X156899258Y-73399258D02*
X146000000Y-73399258D01*
X142600742Y-70000000D02*
X142600742Y-63600742D01*
X142600742Y-63600742D02*
X140000000Y-61000000D01*
%TO.N,SCK*%
X128956000Y-51544000D02*
X128956000Y-49200000D01*
X128000000Y-52500000D02*
X128956000Y-51544000D01*
%TO.N,R2*%
X121770000Y-63990000D02*
X121770000Y-62260000D01*
X122211000Y-64431000D02*
X121770000Y-63990000D01*
%TO.N,5V*%
X138100000Y-91100000D02*
X138100000Y-97460000D01*
X135750000Y-88750000D02*
X138100000Y-91100000D01*
X135000000Y-61000000D02*
X140000000Y-61000000D01*
%TO.N,GND*%
X153000000Y-76500000D02*
X156500000Y-76500000D01*
X148000000Y-71000000D02*
X153000000Y-71000000D01*
%TO.N,5V*%
X164000000Y-82500000D02*
X164000000Y-67000000D01*
X162040000Y-84460000D02*
X164000000Y-82500000D01*
X164000000Y-67000000D02*
X162580000Y-65580000D01*
X162580000Y-65580000D02*
X159000000Y-65580000D01*
X160000000Y-84460000D02*
X162040000Y-84460000D01*
%TO.N,SW*%
X150500000Y-49500000D02*
X150800000Y-49200000D01*
%TO.N,CLK*%
X158864423Y-57960000D02*
X159000000Y-57960000D01*
X156000000Y-62000000D02*
X156000000Y-60824423D01*
X156000000Y-60824423D02*
X158864423Y-57960000D01*
%TO.N,Tx*%
X148260000Y-51500000D02*
X148260000Y-49200000D01*
X146260000Y-53500000D02*
X148260000Y-51500000D01*
%TO.N,Rx*%
X145000000Y-52000000D02*
X145720000Y-51280000D01*
X145720000Y-51280000D02*
X145720000Y-49200000D01*
%TO.N,R2*%
X127069000Y-64431000D02*
X128000000Y-63500000D01*
X122211000Y-64431000D02*
X127069000Y-64431000D01*
%TO.N,GND*%
X116690000Y-62260000D02*
X119230000Y-62260000D01*
%TO.N,Net-(C4-Pad2)*%
X133000000Y-64500000D02*
X132000000Y-63500000D01*
X133000000Y-68000000D02*
X133000000Y-64500000D01*
%TO.N,5V*%
X132500000Y-73415000D02*
X130000000Y-70915000D01*
X132500000Y-75650000D02*
X132500000Y-73415000D01*
X133190000Y-74960000D02*
X134520000Y-74960000D01*
X132500000Y-80900578D02*
X132500000Y-75650000D01*
X132500000Y-75650000D02*
X133190000Y-74960000D01*
X135599422Y-84000000D02*
X132500000Y-80900578D01*
X135599422Y-88599422D02*
X135599422Y-84000000D01*
X135750000Y-88750000D02*
X135599422Y-88599422D01*
%TO.N,Net-(U4-+)*%
X127000000Y-77500000D02*
X119500000Y-77500000D01*
%TO.N,R2*%
X125960000Y-74960000D02*
X127000000Y-74960000D01*
X125029000Y-70971000D02*
X125029000Y-74029000D01*
X125029000Y-74029000D02*
X125960000Y-74960000D01*
X128000000Y-68000000D02*
X125029000Y-70971000D01*
%TO.N,Net-(C4-Pad2)*%
X135500000Y-70500000D02*
X133000000Y-68000000D01*
X137000000Y-70500000D02*
X135500000Y-70500000D01*
X137000000Y-77500000D02*
X137000000Y-70500000D01*
X138500000Y-77500000D02*
X137000000Y-77500000D01*
X137000000Y-77500000D02*
X134520000Y-77500000D01*
X145000000Y-84000000D02*
X138500000Y-77500000D01*
%TO.N,CLK*%
X156000000Y-62000000D02*
X152000000Y-66000000D01*
X152000000Y-66000000D02*
X148000000Y-66000000D01*
%TO.N,5V*%
X128500000Y-61000000D02*
X135000000Y-61000000D01*
%TO.N,SCL*%
X162500000Y-94500000D02*
X163500000Y-94500000D01*
X163500000Y-94500000D02*
X163500000Y-97460000D01*
X162500000Y-87000000D02*
X162500000Y-94500000D01*
X160000000Y-87000000D02*
X162500000Y-87000000D01*
%TO.N,SDA*%
X160000000Y-91000000D02*
X160000000Y-89540000D01*
X161000000Y-92000000D02*
X160000000Y-91000000D01*
X160960000Y-92040000D02*
X161000000Y-92000000D01*
X160960000Y-97460000D02*
X160960000Y-92040000D01*
X161000000Y-97420000D02*
X160960000Y-97460000D01*
%TO.N,5V*%
X158723001Y-65580000D02*
X156929000Y-67374001D01*
X156929000Y-67374001D02*
X156929000Y-73429000D01*
X159000000Y-65580000D02*
X158723001Y-65580000D01*
%TO.N,DT*%
X160971000Y-53471000D02*
X160500000Y-53000000D01*
X159000000Y-60500000D02*
X159135577Y-60500000D01*
X159135577Y-60500000D02*
X160971000Y-58664577D01*
X160971000Y-58664577D02*
X160971000Y-53471000D01*
%TO.N,CLK*%
X158420000Y-54920000D02*
X159000000Y-55500000D01*
X158420000Y-49200000D02*
X158420000Y-54920000D01*
X159000000Y-55500000D02*
X159000000Y-57960000D01*
%TO.N,5V*%
X124310000Y-62260000D02*
X125570000Y-61000000D01*
X125570000Y-61000000D02*
X128500000Y-61000000D01*
X131000000Y-84000000D02*
X135750000Y-88750000D01*
X117500000Y-82000000D02*
X119500000Y-84000000D01*
X102500000Y-82000000D02*
X117500000Y-82000000D01*
X119500000Y-84000000D02*
X131000000Y-84000000D01*
%TO.N,SCK*%
X121770000Y-53608000D02*
X122878000Y-52500000D01*
X122878000Y-52500000D02*
X128000000Y-52500000D01*
X121770000Y-54740000D02*
X121770000Y-53608000D01*
D22*
%TO.N,5V*%
X130000000Y-62500000D02*
X128500000Y-61000000D01*
X130000000Y-70915000D02*
X130000000Y-62500000D01*
D23*
%TO.N,AmpOut*%
X151000000Y-91000000D02*
X151000000Y-97260000D01*
X149000000Y-89000000D02*
X149500000Y-89500000D01*
X149500000Y-89500000D02*
X151000000Y-91000000D01*
X149500000Y-89000000D02*
X149500000Y-84500000D01*
X151000000Y-97260000D02*
X150800000Y-97460000D01*
X149500000Y-84500000D02*
X149000000Y-84000000D01*
%TO.N,5V*%
X102500000Y-76065000D02*
X102525000Y-76040000D01*
X102500000Y-82000000D02*
X102500000Y-76065000D01*
%TO.N,Net-(U4-+)*%
X126425000Y-77500000D02*
X126695000Y-77770000D01*
X112500000Y-77500000D02*
X119500000Y-77500000D01*
X107500000Y-77500000D02*
X112500000Y-77500000D01*
%TO.N,R2*%
X128000000Y-68000000D02*
X128000000Y-64000000D01*
%TO.N,A1*%
X102540000Y-84500000D02*
X102500000Y-84540000D01*
X153000000Y-92500000D02*
X153000000Y-97120000D01*
X125000000Y-92500000D02*
X117500000Y-92500000D01*
X117500000Y-92500000D02*
X112000000Y-87000000D01*
X112000000Y-87000000D02*
X109000000Y-87000000D01*
X153000000Y-97120000D02*
X153340000Y-97460000D01*
X109000000Y-87000000D02*
X109000000Y-84500000D01*
X109000000Y-84500000D02*
X102540000Y-84500000D01*
%TO.N,SCK*%
X129000000Y-49244000D02*
X128956000Y-49200000D01*
%TO.N,Net-(J6-Pin_1)*%
X102525000Y-73500000D02*
X107500000Y-73500000D01*
%TD*%
%TA.AperFunction,Conductor*%
%TO.N,GND*%
G36*
X163484404Y-46755185D02*
G01*
X163505046Y-46771819D01*
X163989636Y-47256409D01*
X164023121Y-47317732D01*
X164018137Y-47387424D01*
X163976265Y-47443357D01*
X163910801Y-47467774D01*
X163863638Y-47462022D01*
X163853240Y-47458643D01*
X163618727Y-47421500D01*
X163618722Y-47421500D01*
X163381278Y-47421500D01*
X163381273Y-47421500D01*
X163146758Y-47458643D01*
X162920932Y-47532019D01*
X162709372Y-47639815D01*
X162517275Y-47779382D01*
X162349382Y-47947275D01*
X162349375Y-47947284D01*
X162330317Y-47973515D01*
X162274987Y-48016181D01*
X162205374Y-48022159D01*
X162143579Y-47989553D01*
X162129683Y-47973515D01*
X162110624Y-47947284D01*
X162110622Y-47947281D01*
X162110620Y-47947278D01*
X161942722Y-47779380D01*
X161750627Y-47639815D01*
X161748851Y-47638910D01*
X161539067Y-47532019D01*
X161313241Y-47458643D01*
X161078727Y-47421500D01*
X161078722Y-47421500D01*
X160841278Y-47421500D01*
X160841273Y-47421500D01*
X160606758Y-47458643D01*
X160380932Y-47532019D01*
X160169372Y-47639815D01*
X159977275Y-47779382D01*
X159809382Y-47947275D01*
X159809375Y-47947284D01*
X159790317Y-47973515D01*
X159734987Y-48016181D01*
X159665374Y-48022159D01*
X159603579Y-47989553D01*
X159589683Y-47973515D01*
X159570624Y-47947284D01*
X159570622Y-47947281D01*
X159570620Y-47947278D01*
X159402722Y-47779380D01*
X159210627Y-47639815D01*
X159208851Y-47638910D01*
X158999067Y-47532019D01*
X158773241Y-47458643D01*
X158538727Y-47421500D01*
X158538722Y-47421500D01*
X158301278Y-47421500D01*
X158301273Y-47421500D01*
X158066758Y-47458643D01*
X157840932Y-47532019D01*
X157629372Y-47639815D01*
X157437275Y-47779382D01*
X157269382Y-47947275D01*
X157269375Y-47947284D01*
X157250317Y-47973515D01*
X157194987Y-48016181D01*
X157125374Y-48022159D01*
X157063579Y-47989553D01*
X157049683Y-47973515D01*
X157030624Y-47947284D01*
X157030622Y-47947281D01*
X157030620Y-47947278D01*
X156862722Y-47779380D01*
X156670627Y-47639815D01*
X156668851Y-47638910D01*
X156459067Y-47532019D01*
X156233241Y-47458643D01*
X155998727Y-47421500D01*
X155998722Y-47421500D01*
X155761278Y-47421500D01*
X155761273Y-47421500D01*
X155526758Y-47458643D01*
X155300932Y-47532019D01*
X155089372Y-47639815D01*
X154897275Y-47779382D01*
X154729382Y-47947275D01*
X154729375Y-47947284D01*
X154710317Y-47973515D01*
X154654987Y-48016181D01*
X154585374Y-48022159D01*
X154523579Y-47989553D01*
X154509683Y-47973515D01*
X154490624Y-47947284D01*
X154490622Y-47947281D01*
X154490620Y-47947278D01*
X154322722Y-47779380D01*
X154130627Y-47639815D01*
X154128851Y-47638910D01*
X153919067Y-47532019D01*
X153693241Y-47458643D01*
X153458727Y-47421500D01*
X153458722Y-47421500D01*
X153221278Y-47421500D01*
X153221273Y-47421500D01*
X152986758Y-47458643D01*
X152760932Y-47532019D01*
X152549372Y-47639815D01*
X152357275Y-47779382D01*
X152189382Y-47947275D01*
X152189375Y-47947284D01*
X152170317Y-47973515D01*
X152114987Y-48016181D01*
X152045374Y-48022159D01*
X151983579Y-47989553D01*
X151969683Y-47973515D01*
X151950624Y-47947284D01*
X151950622Y-47947281D01*
X151950620Y-47947278D01*
X151782722Y-47779380D01*
X151590627Y-47639815D01*
X151588851Y-47638910D01*
X151379067Y-47532019D01*
X151153241Y-47458643D01*
X150918727Y-47421500D01*
X150918722Y-47421500D01*
X150681278Y-47421500D01*
X150681273Y-47421500D01*
X150446758Y-47458643D01*
X150220932Y-47532019D01*
X150009372Y-47639815D01*
X149817275Y-47779382D01*
X149649382Y-47947275D01*
X149649375Y-47947284D01*
X149630317Y-47973515D01*
X149574987Y-48016181D01*
X149505374Y-48022159D01*
X149443579Y-47989553D01*
X149429683Y-47973515D01*
X149410624Y-47947284D01*
X149410622Y-47947281D01*
X149410620Y-47947278D01*
X149242722Y-47779380D01*
X149050627Y-47639815D01*
X149048851Y-47638910D01*
X148839067Y-47532019D01*
X148613241Y-47458643D01*
X148378727Y-47421500D01*
X148378722Y-47421500D01*
X148141278Y-47421500D01*
X148141273Y-47421500D01*
X147906758Y-47458643D01*
X147680932Y-47532019D01*
X147469373Y-47639814D01*
X147352591Y-47724661D01*
X147286784Y-47748140D01*
X147218730Y-47732314D01*
X147177181Y-47690164D01*
X147176204Y-47690896D01*
X147137964Y-47639814D01*
X147083261Y-47566739D01*
X146966204Y-47479111D01*
X146933557Y-47466934D01*
X146829203Y-47428011D01*
X146768654Y-47421500D01*
X146768638Y-47421500D01*
X144671362Y-47421500D01*
X144671345Y-47421500D01*
X144610797Y-47428011D01*
X144610795Y-47428011D01*
X144473795Y-47479111D01*
X144356739Y-47566739D01*
X144269111Y-47683795D01*
X144218011Y-47820795D01*
X144218011Y-47820797D01*
X144211500Y-47881345D01*
X144211500Y-50518654D01*
X144218011Y-50579202D01*
X144218011Y-50579204D01*
X144266463Y-50709104D01*
X144269111Y-50716204D01*
X144356739Y-50833261D01*
X144473796Y-50920889D01*
X144506441Y-50933065D01*
X144555380Y-50951319D01*
X144611313Y-50993191D01*
X144635729Y-51058655D01*
X144620877Y-51126928D01*
X144571471Y-51176333D01*
X144512045Y-51191500D01*
X142005463Y-51191500D01*
X141938424Y-51171815D01*
X141892669Y-51119011D01*
X141882725Y-51049853D01*
X141911750Y-50986297D01*
X141970528Y-50948523D01*
X141986065Y-50945027D01*
X142009241Y-50941356D01*
X142034764Y-50933063D01*
X142235063Y-50867982D01*
X142446627Y-50760185D01*
X142638722Y-50620620D01*
X142806620Y-50452722D01*
X142946185Y-50260627D01*
X143053982Y-50049063D01*
X143127356Y-49823241D01*
X143128760Y-49814379D01*
X143164500Y-49588727D01*
X143164500Y-48811272D01*
X143127356Y-48576758D01*
X143057302Y-48361155D01*
X143053982Y-48350937D01*
X143053980Y-48350934D01*
X143053980Y-48350932D01*
X142997114Y-48239328D01*
X142946185Y-48139373D01*
X142806620Y-47947278D01*
X142638722Y-47779380D01*
X142446627Y-47639815D01*
X142444851Y-47638910D01*
X142235067Y-47532019D01*
X142009241Y-47458643D01*
X141774727Y-47421500D01*
X141774722Y-47421500D01*
X141537278Y-47421500D01*
X141537273Y-47421500D01*
X141302758Y-47458643D01*
X141076932Y-47532019D01*
X140865372Y-47639815D01*
X140673275Y-47779382D01*
X140505382Y-47947275D01*
X140505375Y-47947284D01*
X140486317Y-47973515D01*
X140430987Y-48016181D01*
X140361374Y-48022159D01*
X140299579Y-47989553D01*
X140285683Y-47973515D01*
X140266624Y-47947284D01*
X140266622Y-47947281D01*
X140266620Y-47947278D01*
X140098722Y-47779380D01*
X139906627Y-47639815D01*
X139904851Y-47638910D01*
X139695067Y-47532019D01*
X139469241Y-47458643D01*
X139234727Y-47421500D01*
X139234722Y-47421500D01*
X138997278Y-47421500D01*
X138997273Y-47421500D01*
X138762758Y-47458643D01*
X138536932Y-47532019D01*
X138325372Y-47639815D01*
X138133275Y-47779382D01*
X137965382Y-47947275D01*
X137965375Y-47947284D01*
X137946317Y-47973515D01*
X137890987Y-48016181D01*
X137821374Y-48022159D01*
X137759579Y-47989553D01*
X137745683Y-47973515D01*
X137726624Y-47947284D01*
X137726622Y-47947281D01*
X137726620Y-47947278D01*
X137558722Y-47779380D01*
X137366627Y-47639815D01*
X137364851Y-47638910D01*
X137155067Y-47532019D01*
X136929241Y-47458643D01*
X136694727Y-47421500D01*
X136694722Y-47421500D01*
X136457278Y-47421500D01*
X136457273Y-47421500D01*
X136222758Y-47458643D01*
X135996932Y-47532019D01*
X135785372Y-47639815D01*
X135593275Y-47779382D01*
X135425382Y-47947275D01*
X135425375Y-47947284D01*
X135406317Y-47973515D01*
X135350987Y-48016181D01*
X135281374Y-48022159D01*
X135219579Y-47989553D01*
X135205683Y-47973515D01*
X135186624Y-47947284D01*
X135186622Y-47947281D01*
X135186620Y-47947278D01*
X135018722Y-47779380D01*
X134826627Y-47639815D01*
X134824851Y-47638910D01*
X134615067Y-47532019D01*
X134389241Y-47458643D01*
X134154727Y-47421500D01*
X134154722Y-47421500D01*
X133917278Y-47421500D01*
X133917273Y-47421500D01*
X133682758Y-47458643D01*
X133456932Y-47532019D01*
X133245372Y-47639815D01*
X133053275Y-47779382D01*
X132885382Y-47947275D01*
X132885375Y-47947284D01*
X132866317Y-47973515D01*
X132810987Y-48016181D01*
X132741374Y-48022159D01*
X132679579Y-47989553D01*
X132665683Y-47973515D01*
X132646624Y-47947284D01*
X132646622Y-47947281D01*
X132646620Y-47947278D01*
X132478722Y-47779380D01*
X132286627Y-47639815D01*
X132284851Y-47638910D01*
X132075067Y-47532019D01*
X131849241Y-47458643D01*
X131614727Y-47421500D01*
X131614722Y-47421500D01*
X131377278Y-47421500D01*
X131377273Y-47421500D01*
X131142758Y-47458643D01*
X130916932Y-47532019D01*
X130705372Y-47639815D01*
X130513275Y-47779382D01*
X130345382Y-47947275D01*
X130345375Y-47947284D01*
X130326317Y-47973515D01*
X130270987Y-48016181D01*
X130201374Y-48022159D01*
X130139579Y-47989553D01*
X130125683Y-47973515D01*
X130106624Y-47947284D01*
X130106622Y-47947281D01*
X130106620Y-47947278D01*
X129938722Y-47779380D01*
X129746627Y-47639815D01*
X129744851Y-47638910D01*
X129535067Y-47532019D01*
X129309241Y-47458643D01*
X129074727Y-47421500D01*
X129074722Y-47421500D01*
X128837278Y-47421500D01*
X128837273Y-47421500D01*
X128602758Y-47458643D01*
X128376932Y-47532019D01*
X128165372Y-47639815D01*
X127973275Y-47779382D01*
X127805379Y-47947278D01*
X127781063Y-47980747D01*
X127725733Y-48023412D01*
X127656119Y-48029390D01*
X127594325Y-47996783D01*
X127580428Y-47980746D01*
X127560134Y-47952814D01*
X127393186Y-47785866D01*
X127202171Y-47647085D01*
X126991802Y-47539897D01*
X126767247Y-47466934D01*
X126666000Y-47450897D01*
X126666000Y-48766988D01*
X126608993Y-48734075D01*
X126481826Y-48700000D01*
X126350174Y-48700000D01*
X126223007Y-48734075D01*
X126166000Y-48766988D01*
X126166000Y-47450897D01*
X126064752Y-47466934D01*
X125840197Y-47539897D01*
X125629828Y-47647085D01*
X125438813Y-47785866D01*
X125271866Y-47952813D01*
X125271861Y-47952819D01*
X125251569Y-47980748D01*
X125196238Y-48023412D01*
X125126624Y-48029390D01*
X125064830Y-47996782D01*
X125050935Y-47980745D01*
X125045682Y-47973515D01*
X125026620Y-47947278D01*
X124858722Y-47779380D01*
X124666627Y-47639815D01*
X124664851Y-47638910D01*
X124455067Y-47532019D01*
X124229241Y-47458643D01*
X123994727Y-47421500D01*
X123994722Y-47421500D01*
X123757278Y-47421500D01*
X123757273Y-47421500D01*
X123522758Y-47458643D01*
X123296932Y-47532019D01*
X123085372Y-47639815D01*
X122893275Y-47779382D01*
X122725382Y-47947275D01*
X122725375Y-47947284D01*
X122706317Y-47973515D01*
X122650987Y-48016181D01*
X122581374Y-48022159D01*
X122519579Y-47989553D01*
X122505683Y-47973515D01*
X122486624Y-47947284D01*
X122486622Y-47947281D01*
X122486620Y-47947278D01*
X122318722Y-47779380D01*
X122126627Y-47639815D01*
X122124851Y-47638910D01*
X121915067Y-47532019D01*
X121689241Y-47458643D01*
X121454727Y-47421500D01*
X121454722Y-47421500D01*
X121217278Y-47421500D01*
X121217273Y-47421500D01*
X120982758Y-47458643D01*
X120756932Y-47532019D01*
X120545373Y-47639814D01*
X120420724Y-47730377D01*
X120354917Y-47753856D01*
X120304504Y-47746239D01*
X120175203Y-47698011D01*
X120114654Y-47691500D01*
X120114638Y-47691500D01*
X117477362Y-47691500D01*
X117477345Y-47691500D01*
X117416797Y-47698011D01*
X117416795Y-47698011D01*
X117279795Y-47749111D01*
X117162739Y-47836739D01*
X117075111Y-47953795D01*
X117024011Y-48090795D01*
X117024011Y-48090797D01*
X117017500Y-48151345D01*
X117017500Y-48708350D01*
X116997815Y-48775389D01*
X116945011Y-48821144D01*
X116875853Y-48831088D01*
X116812297Y-48802063D01*
X116775569Y-48746669D01*
X116723239Y-48585616D01*
X116647357Y-48436690D01*
X116608870Y-48361155D01*
X116589952Y-48335117D01*
X116460798Y-48157350D01*
X116460794Y-48157345D01*
X116282654Y-47979205D01*
X116282649Y-47979201D01*
X116078848Y-47831132D01*
X116078847Y-47831131D01*
X116078845Y-47831130D01*
X116008747Y-47795413D01*
X115854383Y-47716760D01*
X115614785Y-47638910D01*
X115365962Y-47599500D01*
X115114038Y-47599500D01*
X114989626Y-47619205D01*
X114865214Y-47638910D01*
X114625616Y-47716760D01*
X114401151Y-47831132D01*
X114197350Y-47979201D01*
X114197345Y-47979205D01*
X114019205Y-48157345D01*
X114019201Y-48157350D01*
X113871132Y-48361151D01*
X113756760Y-48585616D01*
X113678910Y-48825214D01*
X113639500Y-49074038D01*
X113639500Y-49325961D01*
X113678910Y-49574785D01*
X113756760Y-49814383D01*
X113871132Y-50038848D01*
X114019201Y-50242649D01*
X114019205Y-50242654D01*
X114197345Y-50420794D01*
X114197350Y-50420798D01*
X114241293Y-50452724D01*
X114401155Y-50568870D01*
X114544184Y-50641747D01*
X114625616Y-50683239D01*
X114625618Y-50683239D01*
X114625621Y-50683241D01*
X114865215Y-50761090D01*
X115114038Y-50800500D01*
X115114039Y-50800500D01*
X115365961Y-50800500D01*
X115365962Y-50800500D01*
X115614785Y-50761090D01*
X115854379Y-50683241D01*
X116078845Y-50568870D01*
X116282656Y-50420793D01*
X116460793Y-50242656D01*
X116608870Y-50038845D01*
X116723241Y-49814379D01*
X116775569Y-49653329D01*
X116815007Y-49595655D01*
X116879366Y-49568457D01*
X116948212Y-49580372D01*
X116999688Y-49627616D01*
X117017500Y-49691649D01*
X117017500Y-50248654D01*
X117024011Y-50309202D01*
X117024011Y-50309204D01*
X117061348Y-50409304D01*
X117075111Y-50446204D01*
X117162739Y-50563261D01*
X117279796Y-50650889D01*
X117416799Y-50701989D01*
X117444050Y-50704918D01*
X117477345Y-50708499D01*
X117477362Y-50708500D01*
X120114638Y-50708500D01*
X120114654Y-50708499D01*
X120141692Y-50705591D01*
X120175201Y-50701989D01*
X120304507Y-50653759D01*
X120374197Y-50648774D01*
X120420723Y-50669621D01*
X120545373Y-50760185D01*
X120575323Y-50775445D01*
X120756932Y-50867980D01*
X120756934Y-50867980D01*
X120756937Y-50867982D01*
X120876662Y-50906883D01*
X120982758Y-50941356D01*
X121217273Y-50978500D01*
X121217278Y-50978500D01*
X121454727Y-50978500D01*
X121689241Y-50941356D01*
X121714764Y-50933063D01*
X121915063Y-50867982D01*
X122126627Y-50760185D01*
X122318722Y-50620620D01*
X122486620Y-50452722D01*
X122505681Y-50426487D01*
X122561010Y-50383820D01*
X122630624Y-50377840D01*
X122692419Y-50410446D01*
X122706319Y-50426487D01*
X122725376Y-50452718D01*
X122725379Y-50452721D01*
X122725380Y-50452722D01*
X122893278Y-50620620D01*
X123085373Y-50760185D01*
X123115323Y-50775445D01*
X123296932Y-50867980D01*
X123296934Y-50867980D01*
X123296937Y-50867982D01*
X123416662Y-50906883D01*
X123522758Y-50941356D01*
X123757273Y-50978500D01*
X123757278Y-50978500D01*
X123994727Y-50978500D01*
X124229241Y-50941356D01*
X124254764Y-50933063D01*
X124455063Y-50867982D01*
X124666627Y-50760185D01*
X124858722Y-50620620D01*
X125026620Y-50452722D01*
X125050935Y-50419253D01*
X125106261Y-50376589D01*
X125175874Y-50370608D01*
X125237670Y-50403212D01*
X125251570Y-50419252D01*
X125271863Y-50447183D01*
X125438813Y-50614133D01*
X125629828Y-50752914D01*
X125840195Y-50860102D01*
X126064744Y-50933063D01*
X126064750Y-50933065D01*
X126166000Y-50949101D01*
X126166000Y-49633012D01*
X126223007Y-49665925D01*
X126350174Y-49700000D01*
X126481826Y-49700000D01*
X126608993Y-49665925D01*
X126666000Y-49633012D01*
X126666000Y-50949100D01*
X126767249Y-50933065D01*
X126767255Y-50933063D01*
X126991804Y-50860102D01*
X127202171Y-50752914D01*
X127393186Y-50614133D01*
X127560137Y-50447182D01*
X127580426Y-50419256D01*
X127635755Y-50376589D01*
X127705368Y-50370608D01*
X127767164Y-50403212D01*
X127781064Y-50419254D01*
X127781066Y-50419257D01*
X127805380Y-50452722D01*
X127973278Y-50620620D01*
X128096386Y-50710063D01*
X128139051Y-50765391D01*
X128147500Y-50810380D01*
X128147500Y-51157746D01*
X128127815Y-51224785D01*
X128111181Y-51245427D01*
X127701427Y-51655181D01*
X127640104Y-51688666D01*
X127613746Y-51691500D01*
X122963764Y-51691500D01*
X122963744Y-51691499D01*
X122957630Y-51691499D01*
X122798370Y-51691499D01*
X122798368Y-51691499D01*
X122674637Y-51716111D01*
X122674630Y-51716112D01*
X122668085Y-51717415D01*
X122642169Y-51722570D01*
X122610155Y-51735831D01*
X122605086Y-51737930D01*
X122605072Y-51737935D01*
X122495028Y-51783517D01*
X122362611Y-51871996D01*
X122362607Y-51871999D01*
X121147028Y-53087578D01*
X121115642Y-53110382D01*
X120979372Y-53179815D01*
X120787275Y-53319382D01*
X120619382Y-53487275D01*
X120619375Y-53487284D01*
X120600317Y-53513515D01*
X120544987Y-53556181D01*
X120475374Y-53562159D01*
X120413579Y-53529553D01*
X120399683Y-53513515D01*
X120380624Y-53487284D01*
X120380620Y-53487278D01*
X120212722Y-53319380D01*
X120020627Y-53179815D01*
X120018994Y-53178983D01*
X119809067Y-53072019D01*
X119583241Y-52998643D01*
X119348727Y-52961500D01*
X119348722Y-52961500D01*
X119111278Y-52961500D01*
X119111273Y-52961500D01*
X118876758Y-52998643D01*
X118650932Y-53072019D01*
X118439372Y-53179815D01*
X118247275Y-53319382D01*
X118079382Y-53487275D01*
X117939815Y-53679372D01*
X117832017Y-53890936D01*
X117812050Y-53952388D01*
X117781801Y-54001749D01*
X117090000Y-54693550D01*
X117090000Y-54687339D01*
X117062741Y-54585606D01*
X117010080Y-54494394D01*
X116935606Y-54419920D01*
X116844394Y-54367259D01*
X116742661Y-54340000D01*
X116736448Y-54340000D01*
X117708884Y-53367564D01*
X117667186Y-53325866D01*
X117476171Y-53187085D01*
X117265802Y-53079897D01*
X117041247Y-53006934D01*
X117041248Y-53006934D01*
X116808052Y-52970000D01*
X116571948Y-52970000D01*
X116338752Y-53006934D01*
X116114197Y-53079897D01*
X115903828Y-53187085D01*
X115712813Y-53325866D01*
X115671116Y-53367564D01*
X116643552Y-54340000D01*
X116637339Y-54340000D01*
X116535606Y-54367259D01*
X116444394Y-54419920D01*
X116369920Y-54494394D01*
X116317259Y-54585606D01*
X116290000Y-54687339D01*
X116290000Y-54693552D01*
X115364281Y-53767833D01*
X115364281Y-53767834D01*
X115299898Y-53894194D01*
X115226934Y-54118752D01*
X115190000Y-54351947D01*
X115190000Y-55128052D01*
X115226934Y-55361247D01*
X115299897Y-55585802D01*
X115364282Y-55712164D01*
X116290000Y-54786447D01*
X116290000Y-54792661D01*
X116317259Y-54894394D01*
X116369920Y-54985606D01*
X116444394Y-55060080D01*
X116535606Y-55112741D01*
X116637339Y-55140000D01*
X116643552Y-55140000D01*
X115671116Y-56112436D01*
X115712813Y-56154133D01*
X115903828Y-56292914D01*
X116114197Y-56400102D01*
X116338752Y-56473065D01*
X116338751Y-56473065D01*
X116571948Y-56510000D01*
X116808052Y-56510000D01*
X117041247Y-56473065D01*
X117265802Y-56400102D01*
X117476171Y-56292914D01*
X117667186Y-56154133D01*
X117708884Y-56112436D01*
X116736448Y-55140000D01*
X116742661Y-55140000D01*
X116844394Y-55112741D01*
X116935606Y-55060080D01*
X117010080Y-54985606D01*
X117062741Y-54894394D01*
X117090000Y-54792661D01*
X117090000Y-54786448D01*
X117781801Y-55478249D01*
X117812051Y-55527611D01*
X117832019Y-55589067D01*
X117930483Y-55782312D01*
X117939815Y-55800627D01*
X118079380Y-55992722D01*
X118079382Y-55992724D01*
X118247281Y-56160623D01*
X118273842Y-56179920D01*
X118377020Y-56254882D01*
X118392915Y-56275495D01*
X118411703Y-56293515D01*
X118416326Y-56305854D01*
X118419686Y-56310211D01*
X118424725Y-56326319D01*
X118425283Y-56328650D01*
X118452570Y-56465831D01*
X118462020Y-56488644D01*
X118465767Y-56497692D01*
X118465769Y-56497697D01*
X118513516Y-56612968D01*
X118513517Y-56612971D01*
X118601996Y-56745388D01*
X118601999Y-56745392D01*
X119367656Y-57511047D01*
X119367677Y-57511070D01*
X119484605Y-57627998D01*
X119484608Y-57628000D01*
X119484611Y-57628003D01*
X119563991Y-57681042D01*
X119617031Y-57716483D01*
X119635587Y-57724169D01*
X119764169Y-57777430D01*
X119920365Y-57808499D01*
X119920369Y-57808500D01*
X119920370Y-57808500D01*
X129079631Y-57808500D01*
X129079632Y-57808499D01*
X129235831Y-57777430D01*
X129309399Y-57746956D01*
X129382968Y-57716484D01*
X129515389Y-57628003D01*
X130628003Y-56515389D01*
X130716484Y-56382968D01*
X130716486Y-56382961D01*
X130718139Y-56379871D01*
X130719436Y-56378549D01*
X130719869Y-56377903D01*
X130719991Y-56377984D01*
X130767100Y-56330025D01*
X130835237Y-56314562D01*
X130900917Y-56338391D01*
X130943289Y-56393947D01*
X130951500Y-56438320D01*
X130951500Y-56818727D01*
X130988643Y-57053241D01*
X131062019Y-57279067D01*
X131169813Y-57490623D01*
X131169815Y-57490627D01*
X131309380Y-57682722D01*
X131477278Y-57850620D01*
X131669373Y-57990185D01*
X131769328Y-58041114D01*
X131880932Y-58097980D01*
X131880934Y-58097980D01*
X131880937Y-58097982D01*
X132001984Y-58137312D01*
X132106758Y-58171356D01*
X132341273Y-58208500D01*
X132341278Y-58208500D01*
X132578727Y-58208500D01*
X132813241Y-58171356D01*
X132838758Y-58163065D01*
X133039063Y-58097982D01*
X133250627Y-57990185D01*
X133442722Y-57850620D01*
X133610620Y-57682722D01*
X133611841Y-57681042D01*
X133629681Y-57656487D01*
X133685010Y-57613820D01*
X133754624Y-57607840D01*
X133816419Y-57640446D01*
X133830319Y-57656487D01*
X133849376Y-57682718D01*
X133849380Y-57682722D01*
X134017278Y-57850620D01*
X134209373Y-57990185D01*
X134309328Y-58041114D01*
X134420932Y-58097980D01*
X134420934Y-58097980D01*
X134420937Y-58097982D01*
X134541984Y-58137312D01*
X134646758Y-58171356D01*
X134881273Y-58208500D01*
X134881278Y-58208500D01*
X135118727Y-58208500D01*
X135353241Y-58171356D01*
X135378758Y-58163065D01*
X135579063Y-58097982D01*
X135790627Y-57990185D01*
X135982722Y-57850620D01*
X136150620Y-57682722D01*
X136151841Y-57681042D01*
X136169681Y-57656487D01*
X136225010Y-57613820D01*
X136294624Y-57607840D01*
X136356419Y-57640446D01*
X136370319Y-57656487D01*
X136389376Y-57682718D01*
X136389380Y-57682722D01*
X136557278Y-57850620D01*
X136749373Y-57990185D01*
X136849328Y-58041114D01*
X136960932Y-58097980D01*
X136960934Y-58097980D01*
X136960937Y-58097982D01*
X137081984Y-58137312D01*
X137186758Y-58171356D01*
X137421273Y-58208500D01*
X137421278Y-58208500D01*
X137658727Y-58208500D01*
X137893241Y-58171356D01*
X137918758Y-58163065D01*
X138119063Y-58097982D01*
X138330627Y-57990185D01*
X138522722Y-57850620D01*
X138690620Y-57682722D01*
X138830185Y-57490627D01*
X138919301Y-57315724D01*
X138942100Y-57284346D01*
X139680000Y-56546447D01*
X139680000Y-56552661D01*
X139707259Y-56654394D01*
X139759920Y-56745606D01*
X139834394Y-56820080D01*
X139925606Y-56872741D01*
X140027339Y-56900000D01*
X140033552Y-56900000D01*
X139096116Y-57837436D01*
X139102813Y-57844133D01*
X139293828Y-57982914D01*
X139504197Y-58090102D01*
X139728752Y-58163065D01*
X139728751Y-58163065D01*
X139961948Y-58200000D01*
X140198052Y-58200000D01*
X140431247Y-58163065D01*
X140655802Y-58090102D01*
X140866171Y-57982914D01*
X141057186Y-57844133D01*
X141063884Y-57837436D01*
X140126448Y-56900000D01*
X140132661Y-56900000D01*
X140234394Y-56872741D01*
X140325606Y-56820080D01*
X140400080Y-56745606D01*
X140452741Y-56654394D01*
X140480000Y-56552661D01*
X140480000Y-56546448D01*
X141217897Y-57284345D01*
X141240701Y-57315731D01*
X141329815Y-57490627D01*
X141469380Y-57682722D01*
X141637278Y-57850620D01*
X141733374Y-57920438D01*
X141776040Y-57975767D01*
X141782019Y-58045381D01*
X141749414Y-58107176D01*
X141748170Y-58108437D01*
X139701427Y-60155181D01*
X139640104Y-60188666D01*
X139613746Y-60191500D01*
X125490365Y-60191500D01*
X125334176Y-60222568D01*
X125334164Y-60222571D01*
X125288467Y-60241499D01*
X125288468Y-60241500D01*
X125187028Y-60283517D01*
X125054611Y-60371996D01*
X124901679Y-60524928D01*
X124840356Y-60558412D01*
X124775680Y-60555177D01*
X124663243Y-60518644D01*
X124428727Y-60481500D01*
X124428722Y-60481500D01*
X124191278Y-60481500D01*
X124191273Y-60481500D01*
X123956758Y-60518643D01*
X123730932Y-60592019D01*
X123519372Y-60699815D01*
X123327275Y-60839382D01*
X123159382Y-61007275D01*
X123159375Y-61007284D01*
X123140317Y-61033515D01*
X123084987Y-61076181D01*
X123015374Y-61082159D01*
X122953579Y-61049553D01*
X122939683Y-61033515D01*
X122920624Y-61007284D01*
X122920620Y-61007278D01*
X122752722Y-60839380D01*
X122560627Y-60699815D01*
X122349067Y-60592019D01*
X122123241Y-60518643D01*
X121888727Y-60481500D01*
X121888722Y-60481500D01*
X121651278Y-60481500D01*
X121651273Y-60481500D01*
X121416758Y-60518643D01*
X121190932Y-60592019D01*
X120979372Y-60699815D01*
X120787275Y-60839382D01*
X120619382Y-61007275D01*
X120479815Y-61199372D01*
X120372017Y-61410936D01*
X120352050Y-61472388D01*
X120321801Y-61521749D01*
X119630000Y-62213550D01*
X119630000Y-62207339D01*
X119602741Y-62105606D01*
X119550080Y-62014394D01*
X119475606Y-61939920D01*
X119384394Y-61887259D01*
X119282661Y-61860000D01*
X119276448Y-61860000D01*
X120248884Y-60887564D01*
X120207186Y-60845866D01*
X120016171Y-60707085D01*
X119805802Y-60599897D01*
X119581247Y-60526934D01*
X119581248Y-60526934D01*
X119348052Y-60490000D01*
X119111948Y-60490000D01*
X118878752Y-60526934D01*
X118654197Y-60599897D01*
X118443830Y-60707084D01*
X118416755Y-60726755D01*
X118416317Y-60732321D01*
X118442580Y-60780418D01*
X118437596Y-60850110D01*
X118409095Y-60894457D01*
X118313552Y-60990000D01*
X119183552Y-61860000D01*
X119177339Y-61860000D01*
X119075606Y-61887259D01*
X118984394Y-61939920D01*
X118909920Y-62014394D01*
X118857259Y-62105606D01*
X118830000Y-62207339D01*
X118830000Y-62213552D01*
X117960000Y-61343552D01*
X117090000Y-62213552D01*
X117090000Y-62207339D01*
X117062741Y-62105606D01*
X117010080Y-62014394D01*
X116935606Y-61939920D01*
X116844394Y-61887259D01*
X116742661Y-61860000D01*
X116736448Y-61860000D01*
X117606448Y-60990000D01*
X117510904Y-60894456D01*
X117477419Y-60833133D01*
X117482403Y-60763441D01*
X117503542Y-60730548D01*
X117503243Y-60726754D01*
X117476176Y-60707089D01*
X117476163Y-60707081D01*
X117265802Y-60599897D01*
X117041247Y-60526934D01*
X117041248Y-60526934D01*
X116808052Y-60490000D01*
X116571948Y-60490000D01*
X116338752Y-60526934D01*
X116114197Y-60599897D01*
X115903828Y-60707085D01*
X115712813Y-60845866D01*
X115671116Y-60887564D01*
X116643552Y-61860000D01*
X116637339Y-61860000D01*
X116535606Y-61887259D01*
X116444394Y-61939920D01*
X116369920Y-62014394D01*
X116317259Y-62105606D01*
X116290000Y-62207339D01*
X116290000Y-62213552D01*
X115364281Y-61287833D01*
X115364281Y-61287834D01*
X115299898Y-61414194D01*
X115226934Y-61638752D01*
X115190000Y-61871947D01*
X115190000Y-62648052D01*
X115226934Y-62881247D01*
X115299897Y-63105802D01*
X115364282Y-63232164D01*
X116290000Y-62306447D01*
X116290000Y-62312661D01*
X116317259Y-62414394D01*
X116369920Y-62505606D01*
X116444394Y-62580080D01*
X116535606Y-62632741D01*
X116637339Y-62660000D01*
X116643552Y-62660000D01*
X115671116Y-63632436D01*
X115712813Y-63674133D01*
X115903828Y-63812914D01*
X116114197Y-63920102D01*
X116338752Y-63993065D01*
X116338751Y-63993065D01*
X116571948Y-64030000D01*
X116808052Y-64030000D01*
X117041247Y-63993065D01*
X117265802Y-63920102D01*
X117476168Y-63812916D01*
X117503244Y-63793243D01*
X117503682Y-63787677D01*
X117477420Y-63739582D01*
X117482404Y-63669890D01*
X117510905Y-63625543D01*
X117606448Y-63530000D01*
X116736448Y-62660000D01*
X116742661Y-62660000D01*
X116844394Y-62632741D01*
X116935606Y-62580080D01*
X117010080Y-62505606D01*
X117062741Y-62414394D01*
X117090000Y-62312661D01*
X117090000Y-62306448D01*
X117960000Y-63176448D01*
X118830000Y-62306448D01*
X118830000Y-62312661D01*
X118857259Y-62414394D01*
X118909920Y-62505606D01*
X118984394Y-62580080D01*
X119075606Y-62632741D01*
X119177339Y-62660000D01*
X119183552Y-62660000D01*
X118313552Y-63530000D01*
X118409094Y-63625542D01*
X118442579Y-63686865D01*
X118437595Y-63756557D01*
X118416456Y-63789447D01*
X118416755Y-63793244D01*
X118443828Y-63812914D01*
X118654197Y-63920102D01*
X118878752Y-63993065D01*
X118878751Y-63993065D01*
X119111948Y-64030000D01*
X119348052Y-64030000D01*
X119581247Y-63993065D01*
X119805802Y-63920102D01*
X120016171Y-63812914D01*
X120207186Y-63674133D01*
X120248884Y-63632436D01*
X119276448Y-62660000D01*
X119282661Y-62660000D01*
X119384394Y-62632741D01*
X119475606Y-62580080D01*
X119550080Y-62505606D01*
X119602741Y-62414394D01*
X119630000Y-62312661D01*
X119630000Y-62306448D01*
X120321801Y-62998249D01*
X120352051Y-63047611D01*
X120372019Y-63109067D01*
X120428138Y-63219205D01*
X120479815Y-63320627D01*
X120619380Y-63512722D01*
X120787278Y-63680620D01*
X120910386Y-63770063D01*
X120953051Y-63825391D01*
X120961500Y-63870380D01*
X120961500Y-64069634D01*
X120992568Y-64225823D01*
X120992570Y-64225831D01*
X121023043Y-64299399D01*
X121023043Y-64299400D01*
X121053512Y-64372961D01*
X121053519Y-64372974D01*
X121141996Y-64505388D01*
X121141999Y-64505392D01*
X121695610Y-65059003D01*
X121754743Y-65098514D01*
X121828032Y-65147484D01*
X121846615Y-65155181D01*
X121925184Y-65187725D01*
X121975169Y-65208430D01*
X122131365Y-65239499D01*
X122131369Y-65239500D01*
X122131370Y-65239500D01*
X126867500Y-65239500D01*
X126934539Y-65259185D01*
X126980294Y-65311989D01*
X126991500Y-65363500D01*
X126991500Y-66470947D01*
X126971815Y-66537986D01*
X126942988Y-66569322D01*
X126824829Y-66659990D01*
X126824828Y-66659992D01*
X126659988Y-66824831D01*
X126659982Y-66824838D01*
X126518057Y-67009798D01*
X126401490Y-67211698D01*
X126401485Y-67211708D01*
X126312274Y-67427083D01*
X126312271Y-67427093D01*
X126296408Y-67486297D01*
X126251932Y-67652284D01*
X126251930Y-67652295D01*
X126221500Y-67883423D01*
X126221500Y-68116576D01*
X126251931Y-68347711D01*
X126251933Y-68347723D01*
X126287704Y-68481222D01*
X126286041Y-68551072D01*
X126255610Y-68600996D01*
X124400996Y-70455610D01*
X124312519Y-70588026D01*
X124312512Y-70588039D01*
X124295960Y-70628002D01*
X124295960Y-70628003D01*
X124251570Y-70735168D01*
X124251568Y-70735176D01*
X124220500Y-70891365D01*
X124220500Y-74108634D01*
X124251568Y-74264823D01*
X124251570Y-74264831D01*
X124279392Y-74331998D01*
X124279392Y-74331999D01*
X124312512Y-74411960D01*
X124312519Y-74411973D01*
X124400996Y-74544389D01*
X124400999Y-74544392D01*
X125280330Y-75423722D01*
X125310580Y-75473084D01*
X125332019Y-75539067D01*
X125424974Y-75721500D01*
X125439815Y-75750627D01*
X125579380Y-75942722D01*
X125747278Y-76110620D01*
X125747284Y-76110624D01*
X125773515Y-76129683D01*
X125816181Y-76185013D01*
X125822159Y-76254626D01*
X125789553Y-76316421D01*
X125773515Y-76330317D01*
X125747284Y-76349375D01*
X125747275Y-76349382D01*
X125579382Y-76517275D01*
X125579382Y-76517276D01*
X125579380Y-76517278D01*
X125505429Y-76619063D01*
X125489937Y-76640386D01*
X125434607Y-76683051D01*
X125389619Y-76691500D01*
X121158439Y-76691500D01*
X121091400Y-76671815D01*
X121051052Y-76629500D01*
X120981942Y-76509798D01*
X120840017Y-76324838D01*
X120840011Y-76324831D01*
X120675168Y-76159988D01*
X120675161Y-76159982D01*
X120490201Y-76018057D01*
X120288301Y-75901490D01*
X120288291Y-75901485D01*
X120072916Y-75812274D01*
X120072909Y-75812272D01*
X120072907Y-75812271D01*
X119847713Y-75751931D01*
X119809083Y-75746845D01*
X119616576Y-75721500D01*
X119616569Y-75721500D01*
X119383431Y-75721500D01*
X119383423Y-75721500D01*
X119163414Y-75750466D01*
X119152287Y-75751931D01*
X118927093Y-75812271D01*
X118927083Y-75812274D01*
X118711708Y-75901485D01*
X118711698Y-75901490D01*
X118509798Y-76018057D01*
X118324838Y-76159982D01*
X118324831Y-76159988D01*
X118159988Y-76324831D01*
X118159982Y-76324838D01*
X118069325Y-76442986D01*
X118012897Y-76484189D01*
X117970949Y-76491500D01*
X114029051Y-76491500D01*
X113962012Y-76471815D01*
X113930675Y-76442986D01*
X113840017Y-76324838D01*
X113840011Y-76324831D01*
X113675168Y-76159988D01*
X113675161Y-76159982D01*
X113490201Y-76018057D01*
X113288301Y-75901490D01*
X113288291Y-75901485D01*
X113072916Y-75812274D01*
X113072909Y-75812272D01*
X113072907Y-75812271D01*
X112847713Y-75751931D01*
X112809083Y-75746845D01*
X112616576Y-75721500D01*
X112616569Y-75721500D01*
X112383431Y-75721500D01*
X112383423Y-75721500D01*
X112163414Y-75750466D01*
X112152287Y-75751931D01*
X111927093Y-75812271D01*
X111927083Y-75812274D01*
X111711708Y-75901485D01*
X111711698Y-75901490D01*
X111509798Y-76018057D01*
X111324838Y-76159982D01*
X111324831Y-76159988D01*
X111159988Y-76324831D01*
X111159982Y-76324838D01*
X111069325Y-76442986D01*
X111012897Y-76484189D01*
X110970949Y-76491500D01*
X109029051Y-76491500D01*
X108962012Y-76471815D01*
X108930675Y-76442986D01*
X108840017Y-76324838D01*
X108840011Y-76324831D01*
X108675168Y-76159988D01*
X108675161Y-76159982D01*
X108490201Y-76018057D01*
X108288301Y-75901490D01*
X108288291Y-75901485D01*
X108072916Y-75812274D01*
X108072909Y-75812272D01*
X108072907Y-75812271D01*
X107847713Y-75751931D01*
X107809083Y-75746845D01*
X107616576Y-75721500D01*
X107616569Y-75721500D01*
X107383431Y-75721500D01*
X107383423Y-75721500D01*
X107163414Y-75750466D01*
X107152287Y-75751931D01*
X106927093Y-75812271D01*
X106927083Y-75812274D01*
X106711708Y-75901485D01*
X106711698Y-75901490D01*
X106509798Y-76018057D01*
X106324838Y-76159982D01*
X106324831Y-76159988D01*
X106159988Y-76324831D01*
X106159982Y-76324838D01*
X106018057Y-76509798D01*
X105901490Y-76711698D01*
X105901485Y-76711708D01*
X105812274Y-76927083D01*
X105812271Y-76927093D01*
X105753413Y-77146758D01*
X105751932Y-77152284D01*
X105751930Y-77152295D01*
X105721500Y-77383423D01*
X105721500Y-77616576D01*
X105746845Y-77809083D01*
X105751931Y-77847713D01*
X105812271Y-78072906D01*
X105812274Y-78072916D01*
X105901485Y-78288291D01*
X105901490Y-78288301D01*
X106018057Y-78490201D01*
X106159982Y-78675161D01*
X106159988Y-78675168D01*
X106324831Y-78840011D01*
X106324838Y-78840017D01*
X106509798Y-78981942D01*
X106711698Y-79098509D01*
X106711708Y-79098514D01*
X106927083Y-79187725D01*
X106927093Y-79187729D01*
X107152287Y-79248069D01*
X107383431Y-79278500D01*
X107383438Y-79278500D01*
X107616562Y-79278500D01*
X107616569Y-79278500D01*
X107847713Y-79248069D01*
X108072907Y-79187729D01*
X108288298Y-79098511D01*
X108490202Y-78981942D01*
X108675163Y-78840016D01*
X108840016Y-78675163D01*
X108930675Y-78557014D01*
X108987103Y-78515811D01*
X109029051Y-78508500D01*
X110970949Y-78508500D01*
X111037988Y-78528185D01*
X111069325Y-78557014D01*
X111159982Y-78675161D01*
X111159988Y-78675168D01*
X111324831Y-78840011D01*
X111324838Y-78840017D01*
X111509798Y-78981942D01*
X111711698Y-79098509D01*
X111711708Y-79098514D01*
X111927083Y-79187725D01*
X111927093Y-79187729D01*
X112152287Y-79248069D01*
X112383431Y-79278500D01*
X112383438Y-79278500D01*
X112616562Y-79278500D01*
X112616569Y-79278500D01*
X112847713Y-79248069D01*
X113072907Y-79187729D01*
X113288298Y-79098511D01*
X113490202Y-78981942D01*
X113675163Y-78840016D01*
X113840016Y-78675163D01*
X113930675Y-78557014D01*
X113987103Y-78515811D01*
X114029051Y-78508500D01*
X117970949Y-78508500D01*
X118037988Y-78528185D01*
X118069325Y-78557014D01*
X118159982Y-78675161D01*
X118159988Y-78675168D01*
X118324831Y-78840011D01*
X118324838Y-78840017D01*
X118509798Y-78981942D01*
X118711698Y-79098509D01*
X118711708Y-79098514D01*
X118927083Y-79187725D01*
X118927093Y-79187729D01*
X119152287Y-79248069D01*
X119383431Y-79278500D01*
X119383438Y-79278500D01*
X119616562Y-79278500D01*
X119616569Y-79278500D01*
X119847713Y-79248069D01*
X120072907Y-79187729D01*
X120288298Y-79098511D01*
X120490202Y-78981942D01*
X120675163Y-78840016D01*
X120840016Y-78675163D01*
X120981942Y-78490202D01*
X121051052Y-78370500D01*
X121101619Y-78322285D01*
X121158439Y-78308500D01*
X125389619Y-78308500D01*
X125456658Y-78328185D01*
X125489935Y-78359612D01*
X125579380Y-78482722D01*
X125747278Y-78650620D01*
X125939373Y-78790185D01*
X125988056Y-78814990D01*
X126150936Y-78897982D01*
X126150942Y-78897984D01*
X126212386Y-78917948D01*
X126261750Y-78948198D01*
X126953552Y-79640000D01*
X126947339Y-79640000D01*
X126845606Y-79667259D01*
X126754394Y-79719920D01*
X126679920Y-79794394D01*
X126627259Y-79885606D01*
X126600000Y-79987339D01*
X126600000Y-79993552D01*
X125627564Y-79021116D01*
X125585866Y-79062813D01*
X125447085Y-79253828D01*
X125339897Y-79464197D01*
X125266934Y-79688752D01*
X125230000Y-79921947D01*
X125230000Y-80158052D01*
X125266934Y-80391247D01*
X125339897Y-80615802D01*
X125447085Y-80826171D01*
X125585866Y-81017186D01*
X125627564Y-81058884D01*
X126600000Y-80086448D01*
X126600000Y-80092661D01*
X126627259Y-80194394D01*
X126679920Y-80285606D01*
X126754394Y-80360080D01*
X126845606Y-80412741D01*
X126947339Y-80440000D01*
X126953552Y-80440000D01*
X126027833Y-81365716D01*
X126154197Y-81430102D01*
X126378752Y-81503065D01*
X126378751Y-81503065D01*
X126611948Y-81540000D01*
X127388052Y-81540000D01*
X127621247Y-81503065D01*
X127845797Y-81430104D01*
X127972165Y-81365716D01*
X127046448Y-80440000D01*
X127052661Y-80440000D01*
X127154394Y-80412741D01*
X127245606Y-80360080D01*
X127320080Y-80285606D01*
X127372741Y-80194394D01*
X127400000Y-80092661D01*
X127400000Y-80086448D01*
X128372436Y-81058884D01*
X128414133Y-81017186D01*
X128552914Y-80826171D01*
X128660102Y-80615802D01*
X128733065Y-80391247D01*
X128770000Y-80158052D01*
X128770000Y-79921947D01*
X128733065Y-79688752D01*
X128660102Y-79464197D01*
X128552914Y-79253828D01*
X128414133Y-79062813D01*
X128372436Y-79021116D01*
X127400000Y-79993552D01*
X127400000Y-79987339D01*
X127372741Y-79885606D01*
X127320080Y-79794394D01*
X127245606Y-79719920D01*
X127154394Y-79667259D01*
X127052661Y-79640000D01*
X127046449Y-79640000D01*
X127738249Y-78948197D01*
X127787609Y-78917949D01*
X127849063Y-78897982D01*
X128060627Y-78790185D01*
X128252722Y-78650620D01*
X128420620Y-78482722D01*
X128560185Y-78290627D01*
X128667982Y-78079063D01*
X128741356Y-77853241D01*
X128742233Y-77847704D01*
X128778500Y-77618727D01*
X128778500Y-77381272D01*
X128741356Y-77146758D01*
X128667980Y-76920932D01*
X128566908Y-76722568D01*
X128560185Y-76709373D01*
X128420620Y-76517278D01*
X128252722Y-76349380D01*
X128252718Y-76349376D01*
X128226487Y-76330319D01*
X128183820Y-76274990D01*
X128177840Y-76205376D01*
X128210446Y-76143581D01*
X128226487Y-76129681D01*
X128252718Y-76110623D01*
X128252718Y-76110622D01*
X128252722Y-76110620D01*
X128420620Y-75942722D01*
X128560185Y-75750627D01*
X128667982Y-75539063D01*
X128741356Y-75313241D01*
X128778500Y-75078727D01*
X128778500Y-74841272D01*
X128741356Y-74606758D01*
X128678066Y-74411973D01*
X128667982Y-74380937D01*
X128667980Y-74380934D01*
X128667980Y-74380932D01*
X128579743Y-74207758D01*
X128560185Y-74169373D01*
X128475337Y-74052589D01*
X128451858Y-73986785D01*
X128467683Y-73918731D01*
X128509836Y-73877182D01*
X128509104Y-73876204D01*
X128516204Y-73870889D01*
X128633261Y-73783261D01*
X128720889Y-73666204D01*
X128771989Y-73529201D01*
X128776691Y-73485469D01*
X128778499Y-73468654D01*
X128778500Y-73468637D01*
X128778500Y-71371362D01*
X128778499Y-71371345D01*
X128775157Y-71340270D01*
X128771989Y-71310799D01*
X128767203Y-71297968D01*
X128747673Y-71245606D01*
X128720889Y-71173796D01*
X128633261Y-71056739D01*
X128516204Y-70969111D01*
X128379203Y-70918011D01*
X128318654Y-70911500D01*
X128318638Y-70911500D01*
X126531254Y-70911500D01*
X126464215Y-70891815D01*
X126418460Y-70839011D01*
X126408516Y-70769853D01*
X126437541Y-70706297D01*
X126443573Y-70699819D01*
X126664646Y-70478746D01*
X127399004Y-69744386D01*
X127460325Y-69710903D01*
X127518772Y-69712293D01*
X127652287Y-69748069D01*
X127883431Y-69778500D01*
X127883438Y-69778500D01*
X128116562Y-69778500D01*
X128116569Y-69778500D01*
X128347713Y-69748069D01*
X128572907Y-69687729D01*
X128788298Y-69598511D01*
X128990202Y-69481942D01*
X129031638Y-69450147D01*
X129042013Y-69442186D01*
X129107182Y-69416991D01*
X129175627Y-69431029D01*
X129225617Y-69479843D01*
X129241500Y-69540561D01*
X129241500Y-70608803D01*
X129232062Y-70656254D01*
X129222571Y-70679168D01*
X129222570Y-70679170D01*
X129191500Y-70835367D01*
X129191500Y-70835370D01*
X129191500Y-70994630D01*
X129191500Y-70994632D01*
X129191499Y-70994632D01*
X129222569Y-71150824D01*
X129222571Y-71150832D01*
X129283512Y-71297961D01*
X129283519Y-71297973D01*
X129371996Y-71430389D01*
X129371999Y-71430392D01*
X131655181Y-73713573D01*
X131688666Y-73774896D01*
X131691500Y-73801254D01*
X131691500Y-80980212D01*
X131722568Y-81136401D01*
X131722570Y-81136409D01*
X131745390Y-81191501D01*
X131783516Y-81283546D01*
X131783517Y-81283549D01*
X131871996Y-81415966D01*
X131871999Y-81415970D01*
X134754603Y-84298573D01*
X134788088Y-84359896D01*
X134790922Y-84386254D01*
X134790922Y-86348167D01*
X134771237Y-86415206D01*
X134718433Y-86460961D01*
X134649275Y-86470905D01*
X134585719Y-86441880D01*
X134579241Y-86435848D01*
X131515389Y-83371996D01*
X131382973Y-83283519D01*
X131382970Y-83283517D01*
X131382968Y-83283516D01*
X131382965Y-83283514D01*
X131382960Y-83283512D01*
X131301606Y-83249815D01*
X131235831Y-83222570D01*
X131235823Y-83222568D01*
X131079634Y-83191500D01*
X131079630Y-83191500D01*
X119886254Y-83191500D01*
X119819215Y-83171815D01*
X119798573Y-83155181D01*
X118053785Y-81410392D01*
X118015392Y-81371999D01*
X118015388Y-81371996D01*
X117882974Y-81283519D01*
X117882970Y-81283517D01*
X117882968Y-81283516D01*
X117809399Y-81253043D01*
X117809397Y-81253042D01*
X117809396Y-81253041D01*
X117735831Y-81222570D01*
X117735823Y-81222568D01*
X117579634Y-81191500D01*
X117579630Y-81191500D01*
X104110381Y-81191500D01*
X104043342Y-81171815D01*
X104010063Y-81140386D01*
X103920620Y-81017278D01*
X103752722Y-80849380D01*
X103560627Y-80709815D01*
X103559614Y-80709079D01*
X103516949Y-80653749D01*
X103508500Y-80608761D01*
X103508500Y-77445470D01*
X103528185Y-77378431D01*
X103576207Y-77334984D01*
X103585627Y-77330185D01*
X103777722Y-77190620D01*
X103945620Y-77022722D01*
X104085185Y-76830627D01*
X104192982Y-76619063D01*
X104266356Y-76393241D01*
X104277191Y-76324831D01*
X104303500Y-76158727D01*
X104303500Y-75921272D01*
X104266356Y-75686758D01*
X104214848Y-75528235D01*
X104192982Y-75460937D01*
X104192980Y-75460934D01*
X104192980Y-75460932D01*
X104085184Y-75249372D01*
X103945620Y-75057278D01*
X103777722Y-74889380D01*
X103777718Y-74889376D01*
X103751487Y-74870319D01*
X103738859Y-74853944D01*
X103722719Y-74841014D01*
X103717954Y-74826834D01*
X103708820Y-74814990D01*
X103707050Y-74794385D01*
X103700463Y-74774784D01*
X103704120Y-74760280D01*
X103702840Y-74745376D01*
X103712490Y-74727085D01*
X103717547Y-74707035D01*
X103730720Y-74692535D01*
X103735446Y-74683581D01*
X103739613Y-74679489D01*
X103745240Y-74674218D01*
X103777722Y-74650620D01*
X103884982Y-74543359D01*
X103886446Y-74541989D01*
X103915917Y-74527130D01*
X103944846Y-74511334D01*
X103947899Y-74511005D01*
X103948835Y-74510534D01*
X103950584Y-74510716D01*
X103971204Y-74508500D01*
X105970949Y-74508500D01*
X106037988Y-74528185D01*
X106069325Y-74557014D01*
X106159982Y-74675161D01*
X106159988Y-74675168D01*
X106324831Y-74840011D01*
X106324838Y-74840017D01*
X106509798Y-74981942D01*
X106711698Y-75098509D01*
X106711708Y-75098514D01*
X106907620Y-75179663D01*
X106927093Y-75187729D01*
X107152287Y-75248069D01*
X107383431Y-75278500D01*
X107383438Y-75278500D01*
X107616562Y-75278500D01*
X107616569Y-75278500D01*
X107847713Y-75248069D01*
X108072907Y-75187729D01*
X108288298Y-75098511D01*
X108490202Y-74981942D01*
X108675163Y-74840016D01*
X108700189Y-74814990D01*
X108734932Y-74780248D01*
X108840011Y-74675168D01*
X108840016Y-74675163D01*
X108981942Y-74490202D01*
X109098511Y-74288298D01*
X109100069Y-74284538D01*
X109180286Y-74090875D01*
X109187729Y-74072907D01*
X109248069Y-73847713D01*
X109278500Y-73616569D01*
X109278500Y-73383431D01*
X109248069Y-73152287D01*
X109187729Y-72927093D01*
X109112555Y-72745606D01*
X109098514Y-72711708D01*
X109098509Y-72711698D01*
X108981942Y-72509798D01*
X108940215Y-72455418D01*
X108940213Y-72455416D01*
X108885409Y-72383994D01*
X110730000Y-72383994D01*
X110730000Y-72616005D01*
X110730001Y-72616022D01*
X110760283Y-72846040D01*
X110760286Y-72846053D01*
X110820336Y-73070167D01*
X110909124Y-73284521D01*
X110909132Y-73284538D01*
X111025136Y-73485461D01*
X111025142Y-73485469D01*
X111084117Y-73562327D01*
X112100000Y-72546445D01*
X112100000Y-72552661D01*
X112127259Y-72654394D01*
X112179920Y-72745606D01*
X112254394Y-72820080D01*
X112345606Y-72872741D01*
X112447339Y-72900000D01*
X112453554Y-72900000D01*
X111437671Y-73915881D01*
X111514530Y-73974857D01*
X111514538Y-73974863D01*
X111715461Y-74090867D01*
X111715478Y-74090875D01*
X111929832Y-74179663D01*
X112153946Y-74239713D01*
X112153959Y-74239716D01*
X112383977Y-74269998D01*
X112383995Y-74270000D01*
X112616005Y-74270000D01*
X112616022Y-74269998D01*
X112846040Y-74239716D01*
X112846053Y-74239713D01*
X113070167Y-74179663D01*
X113284521Y-74090875D01*
X113284538Y-74090867D01*
X113485475Y-73974855D01*
X113562327Y-73915883D01*
X113562327Y-73915880D01*
X112546446Y-72900000D01*
X112552661Y-72900000D01*
X112654394Y-72872741D01*
X112745606Y-72820080D01*
X112820080Y-72745606D01*
X112872741Y-72654394D01*
X112900000Y-72552661D01*
X112900000Y-72546446D01*
X113915880Y-73562327D01*
X113915883Y-73562327D01*
X113974855Y-73485475D01*
X114033446Y-73383994D01*
X117730000Y-73383994D01*
X117730000Y-73616005D01*
X117730001Y-73616022D01*
X117760283Y-73846040D01*
X117760286Y-73846053D01*
X117820336Y-74070167D01*
X117909124Y-74284521D01*
X117909132Y-74284538D01*
X118025136Y-74485461D01*
X118025142Y-74485469D01*
X118084117Y-74562327D01*
X119100000Y-73546445D01*
X119100000Y-73552661D01*
X119127259Y-73654394D01*
X119179920Y-73745606D01*
X119254394Y-73820080D01*
X119345606Y-73872741D01*
X119447339Y-73900000D01*
X119453554Y-73900000D01*
X118437671Y-74915881D01*
X118514530Y-74974857D01*
X118514538Y-74974863D01*
X118715461Y-75090867D01*
X118715478Y-75090875D01*
X118929832Y-75179663D01*
X119153946Y-75239713D01*
X119153959Y-75239716D01*
X119383977Y-75269998D01*
X119383995Y-75270000D01*
X119616005Y-75270000D01*
X119616022Y-75269998D01*
X119846040Y-75239716D01*
X119846053Y-75239713D01*
X120070167Y-75179663D01*
X120284521Y-75090875D01*
X120284538Y-75090867D01*
X120485475Y-74974855D01*
X120562327Y-74915883D01*
X120562327Y-74915880D01*
X119546446Y-73900000D01*
X119552661Y-73900000D01*
X119654394Y-73872741D01*
X119745606Y-73820080D01*
X119820080Y-73745606D01*
X119872741Y-73654394D01*
X119900000Y-73552661D01*
X119900000Y-73546446D01*
X120915880Y-74562327D01*
X120915883Y-74562327D01*
X120974855Y-74485475D01*
X121090867Y-74284538D01*
X121090875Y-74284521D01*
X121179663Y-74070167D01*
X121239713Y-73846053D01*
X121239716Y-73846040D01*
X121269998Y-73616022D01*
X121270000Y-73616005D01*
X121270000Y-73383994D01*
X121269998Y-73383977D01*
X121239716Y-73153959D01*
X121239713Y-73153946D01*
X121179663Y-72929832D01*
X121090875Y-72715478D01*
X121090867Y-72715461D01*
X120974863Y-72514538D01*
X120974857Y-72514530D01*
X120915881Y-72437671D01*
X119900000Y-73453552D01*
X119900000Y-73447339D01*
X119872741Y-73345606D01*
X119820080Y-73254394D01*
X119745606Y-73179920D01*
X119654394Y-73127259D01*
X119552661Y-73100000D01*
X119546447Y-73100000D01*
X120562327Y-72084117D01*
X120485469Y-72025142D01*
X120485461Y-72025136D01*
X120284538Y-71909132D01*
X120284521Y-71909124D01*
X120070167Y-71820336D01*
X119846053Y-71760286D01*
X119846040Y-71760283D01*
X119616022Y-71730001D01*
X119616005Y-71730000D01*
X119383995Y-71730000D01*
X119383977Y-71730001D01*
X119153959Y-71760283D01*
X119153946Y-71760286D01*
X118929832Y-71820336D01*
X118715478Y-71909124D01*
X118715461Y-71909132D01*
X118514541Y-72025134D01*
X118514533Y-72025140D01*
X118437671Y-72084116D01*
X118437671Y-72084117D01*
X119453554Y-73100000D01*
X119447339Y-73100000D01*
X119345606Y-73127259D01*
X119254394Y-73179920D01*
X119179920Y-73254394D01*
X119127259Y-73345606D01*
X119100000Y-73447339D01*
X119100000Y-73453553D01*
X118084117Y-72437671D01*
X118084116Y-72437671D01*
X118025140Y-72514533D01*
X118025134Y-72514541D01*
X117909132Y-72715461D01*
X117909124Y-72715478D01*
X117820336Y-72929832D01*
X117760286Y-73153946D01*
X117760283Y-73153959D01*
X117730001Y-73383977D01*
X117730000Y-73383994D01*
X114033446Y-73383994D01*
X114071589Y-73317929D01*
X114071589Y-73317928D01*
X114090870Y-73284531D01*
X114090875Y-73284521D01*
X114179663Y-73070167D01*
X114239713Y-72846053D01*
X114239716Y-72846040D01*
X114269998Y-72616022D01*
X114270000Y-72616005D01*
X114270000Y-72383994D01*
X114269998Y-72383977D01*
X114239715Y-72153952D01*
X114179663Y-71929832D01*
X114090875Y-71715478D01*
X114090867Y-71715461D01*
X113974863Y-71514538D01*
X113974857Y-71514530D01*
X113915881Y-71437671D01*
X112900000Y-72453552D01*
X112900000Y-72447339D01*
X112872741Y-72345606D01*
X112820080Y-72254394D01*
X112745606Y-72179920D01*
X112654394Y-72127259D01*
X112552661Y-72100000D01*
X112546447Y-72100000D01*
X113562327Y-71084117D01*
X113485469Y-71025142D01*
X113485461Y-71025136D01*
X113284538Y-70909132D01*
X113284521Y-70909124D01*
X113070167Y-70820336D01*
X112846053Y-70760286D01*
X112846040Y-70760283D01*
X112616022Y-70730001D01*
X112616005Y-70730000D01*
X112383995Y-70730000D01*
X112383977Y-70730001D01*
X112153959Y-70760283D01*
X112153946Y-70760286D01*
X111929832Y-70820336D01*
X111715478Y-70909124D01*
X111715461Y-70909132D01*
X111514541Y-71025134D01*
X111514533Y-71025140D01*
X111437671Y-71084116D01*
X111437671Y-71084117D01*
X112453554Y-72100000D01*
X112447339Y-72100000D01*
X112345606Y-72127259D01*
X112254394Y-72179920D01*
X112179920Y-72254394D01*
X112127259Y-72345606D01*
X112100000Y-72447339D01*
X112100000Y-72453553D01*
X111084117Y-71437671D01*
X111084116Y-71437671D01*
X111025140Y-71514533D01*
X111025134Y-71514541D01*
X110909132Y-71715461D01*
X110909124Y-71715478D01*
X110820336Y-71929832D01*
X110760286Y-72153946D01*
X110760283Y-72153959D01*
X110730001Y-72383977D01*
X110730000Y-72383994D01*
X108885409Y-72383994D01*
X108858850Y-72349382D01*
X108840016Y-72324837D01*
X108840014Y-72324835D01*
X108840011Y-72324831D01*
X108675168Y-72159988D01*
X108675161Y-72159982D01*
X108490201Y-72018057D01*
X108288301Y-71901490D01*
X108288291Y-71901485D01*
X108072916Y-71812274D01*
X108072909Y-71812272D01*
X108072907Y-71812271D01*
X107847713Y-71751931D01*
X107809083Y-71746845D01*
X107616576Y-71721500D01*
X107616569Y-71721500D01*
X107383431Y-71721500D01*
X107383423Y-71721500D01*
X107163414Y-71750466D01*
X107152287Y-71751931D01*
X107030595Y-71784538D01*
X106927093Y-71812271D01*
X106927083Y-71812274D01*
X106711708Y-71901485D01*
X106711698Y-71901490D01*
X106509798Y-72018057D01*
X106324838Y-72159982D01*
X106324831Y-72159988D01*
X106159988Y-72324831D01*
X106159982Y-72324838D01*
X106069325Y-72442986D01*
X106012897Y-72484189D01*
X105970949Y-72491500D01*
X103971204Y-72491500D01*
X103904165Y-72471815D01*
X103883523Y-72455181D01*
X103777724Y-72349382D01*
X103777722Y-72349380D01*
X103585627Y-72209815D01*
X103526955Y-72179920D01*
X103374067Y-72102019D01*
X103148241Y-72028643D01*
X102913727Y-71991500D01*
X102913722Y-71991500D01*
X102136278Y-71991500D01*
X102136273Y-71991500D01*
X101901758Y-72028643D01*
X101675932Y-72102019D01*
X101464372Y-72209815D01*
X101272275Y-72349382D01*
X101104382Y-72517275D01*
X100964815Y-72709372D01*
X100857019Y-72920932D01*
X100783643Y-73146758D01*
X100746500Y-73381272D01*
X100746500Y-73618727D01*
X100783643Y-73853241D01*
X100857019Y-74079067D01*
X100963625Y-74288291D01*
X100964815Y-74290627D01*
X101104380Y-74482722D01*
X101272278Y-74650620D01*
X101272284Y-74650624D01*
X101298515Y-74669683D01*
X101341181Y-74725013D01*
X101347159Y-74794626D01*
X101314553Y-74856421D01*
X101298515Y-74870317D01*
X101272284Y-74889375D01*
X101272275Y-74889382D01*
X101104382Y-75057275D01*
X100964815Y-75249372D01*
X100857019Y-75460932D01*
X100783643Y-75686758D01*
X100746500Y-75921272D01*
X100746500Y-76158727D01*
X100783643Y-76393241D01*
X100857019Y-76619067D01*
X100940811Y-76783516D01*
X100964815Y-76830627D01*
X101104380Y-77022722D01*
X101272278Y-77190620D01*
X101440386Y-77312757D01*
X101483051Y-77368085D01*
X101491500Y-77413074D01*
X101491500Y-80608761D01*
X101471815Y-80675800D01*
X101440386Y-80709079D01*
X101247275Y-80849382D01*
X101079382Y-81017275D01*
X100939815Y-81209372D01*
X100832019Y-81420932D01*
X100758643Y-81646758D01*
X100721500Y-81881272D01*
X100721500Y-82118727D01*
X100758643Y-82353241D01*
X100832019Y-82579067D01*
X100911897Y-82735835D01*
X100939815Y-82790627D01*
X101079380Y-82982722D01*
X101247278Y-83150620D01*
X101247284Y-83150624D01*
X101273515Y-83169683D01*
X101316181Y-83225013D01*
X101322159Y-83294626D01*
X101289553Y-83356421D01*
X101273515Y-83370317D01*
X101247284Y-83389375D01*
X101247275Y-83389382D01*
X101079382Y-83557275D01*
X100939815Y-83749372D01*
X100832019Y-83960932D01*
X100758643Y-84186758D01*
X100721500Y-84421272D01*
X100721500Y-84658727D01*
X100758643Y-84893241D01*
X100832019Y-85119067D01*
X100926573Y-85304638D01*
X100939815Y-85330627D01*
X101079380Y-85522722D01*
X101247278Y-85690620D01*
X101439373Y-85830185D01*
X101477974Y-85849853D01*
X101650932Y-85937980D01*
X101650934Y-85937980D01*
X101650937Y-85937982D01*
X101771984Y-85977312D01*
X101876758Y-86011356D01*
X102111273Y-86048500D01*
X102111278Y-86048500D01*
X102888727Y-86048500D01*
X103123241Y-86011356D01*
X103184351Y-85991500D01*
X103349063Y-85937982D01*
X103560627Y-85830185D01*
X103752722Y-85690620D01*
X103898523Y-85544819D01*
X103959846Y-85511334D01*
X103986204Y-85508500D01*
X107470949Y-85508500D01*
X107537988Y-85528185D01*
X107569325Y-85557014D01*
X107659982Y-85675161D01*
X107659988Y-85675168D01*
X107824831Y-85840011D01*
X107824838Y-85840017D01*
X107942986Y-85930675D01*
X107984189Y-85987103D01*
X107991500Y-86029051D01*
X107991500Y-87099333D01*
X108030254Y-87294161D01*
X108030256Y-87294169D01*
X108106277Y-87477701D01*
X108106282Y-87477710D01*
X108216646Y-87642880D01*
X108216649Y-87642884D01*
X108357115Y-87783350D01*
X108357119Y-87783353D01*
X108522289Y-87893717D01*
X108522295Y-87893720D01*
X108522296Y-87893721D01*
X108705831Y-87969744D01*
X108900666Y-88008499D01*
X108900670Y-88008500D01*
X108900671Y-88008500D01*
X109099329Y-88008500D01*
X111530904Y-88008500D01*
X111597943Y-88028185D01*
X111618585Y-88044819D01*
X116857115Y-93283351D01*
X116857123Y-93283357D01*
X117022286Y-93393715D01*
X117022289Y-93393716D01*
X117022297Y-93393722D01*
X117129809Y-93438254D01*
X117205831Y-93469744D01*
X117400666Y-93508499D01*
X117400670Y-93508500D01*
X117400671Y-93508500D01*
X117400672Y-93508500D01*
X117599329Y-93508500D01*
X123823796Y-93508500D01*
X123890835Y-93528185D01*
X123911477Y-93544819D01*
X124017278Y-93650620D01*
X124209373Y-93790185D01*
X124309328Y-93841114D01*
X124420932Y-93897980D01*
X124420934Y-93897980D01*
X124420937Y-93897982D01*
X124541984Y-93937312D01*
X124646758Y-93971356D01*
X124881273Y-94008500D01*
X124881278Y-94008500D01*
X125118727Y-94008500D01*
X125353241Y-93971356D01*
X125579063Y-93897982D01*
X125790627Y-93790185D01*
X125982722Y-93650620D01*
X126150620Y-93482722D01*
X126290185Y-93290627D01*
X126397982Y-93079063D01*
X126471356Y-92853241D01*
X126486950Y-92754785D01*
X126508500Y-92618727D01*
X126508500Y-92381272D01*
X126471356Y-92146758D01*
X126437312Y-92041984D01*
X126397982Y-91920937D01*
X126397980Y-91920934D01*
X126397980Y-91920932D01*
X126290184Y-91709372D01*
X126150620Y-91517278D01*
X125982722Y-91349380D01*
X125790627Y-91209815D01*
X125579067Y-91102019D01*
X125353241Y-91028643D01*
X125118727Y-90991500D01*
X125118722Y-90991500D01*
X124881278Y-90991500D01*
X124881273Y-90991500D01*
X124646758Y-91028643D01*
X124420932Y-91102019D01*
X124209372Y-91209815D01*
X124017275Y-91349382D01*
X123911477Y-91455181D01*
X123850154Y-91488666D01*
X123823796Y-91491500D01*
X117969097Y-91491500D01*
X117902058Y-91471815D01*
X117881416Y-91455181D01*
X115426234Y-88999999D01*
X112907914Y-86481680D01*
X112874430Y-86420358D01*
X112879414Y-86350666D01*
X112921286Y-86294733D01*
X112986750Y-86270316D01*
X112995596Y-86270000D01*
X113116005Y-86270000D01*
X113116022Y-86269998D01*
X113346040Y-86239716D01*
X113346053Y-86239713D01*
X113570167Y-86179663D01*
X113784521Y-86090875D01*
X113784538Y-86090867D01*
X113985475Y-85974855D01*
X114062327Y-85915883D01*
X114062327Y-85915880D01*
X113046446Y-84900000D01*
X113052661Y-84900000D01*
X113154394Y-84872741D01*
X113245606Y-84820080D01*
X113320080Y-84745606D01*
X113372741Y-84654394D01*
X113400000Y-84552661D01*
X113400000Y-84546447D01*
X114415880Y-85562327D01*
X114415883Y-85562327D01*
X114474855Y-85485475D01*
X114590867Y-85284538D01*
X114590875Y-85284521D01*
X114679663Y-85070167D01*
X114739713Y-84846053D01*
X114739716Y-84846040D01*
X114769998Y-84616022D01*
X114770000Y-84616005D01*
X114770000Y-84383994D01*
X114769998Y-84383977D01*
X114739716Y-84153959D01*
X114739713Y-84153946D01*
X114679663Y-83929832D01*
X114590875Y-83715478D01*
X114590867Y-83715461D01*
X114474863Y-83514538D01*
X114474857Y-83514530D01*
X114415881Y-83437671D01*
X113400000Y-84453552D01*
X113400000Y-84447339D01*
X113372741Y-84345606D01*
X113320080Y-84254394D01*
X113245606Y-84179920D01*
X113154394Y-84127259D01*
X113052661Y-84100000D01*
X113046447Y-84100000D01*
X114062327Y-83084117D01*
X113992942Y-83030876D01*
X113951740Y-82974448D01*
X113947585Y-82904702D01*
X113981797Y-82843781D01*
X114043515Y-82811029D01*
X114068429Y-82808500D01*
X117113746Y-82808500D01*
X117180785Y-82828185D01*
X117201427Y-82844819D01*
X118984607Y-84628000D01*
X118984610Y-84628003D01*
X119117026Y-84716480D01*
X119117032Y-84716484D01*
X119124495Y-84719575D01*
X119219485Y-84758921D01*
X119264169Y-84777430D01*
X119420365Y-84808499D01*
X119420369Y-84808500D01*
X119420370Y-84808500D01*
X130613746Y-84808500D01*
X130680785Y-84828185D01*
X130701427Y-84844819D01*
X134971417Y-89114808D01*
X134971419Y-89114811D01*
X135054771Y-89198162D01*
X135117661Y-89261052D01*
X135117682Y-89261075D01*
X137255181Y-91398573D01*
X137288666Y-91459896D01*
X137291500Y-91486254D01*
X137291500Y-95849619D01*
X137271815Y-95916658D01*
X137240387Y-95949935D01*
X137117278Y-96039380D01*
X137117276Y-96039382D01*
X137117275Y-96039382D01*
X136949382Y-96207275D01*
X136949375Y-96207284D01*
X136930317Y-96233515D01*
X136874987Y-96276181D01*
X136805374Y-96282159D01*
X136743579Y-96249553D01*
X136729683Y-96233515D01*
X136710624Y-96207284D01*
X136710622Y-96207281D01*
X136710620Y-96207278D01*
X136542722Y-96039380D01*
X136350627Y-95899815D01*
X136296202Y-95872084D01*
X136139067Y-95792019D01*
X135913241Y-95718643D01*
X135678727Y-95681500D01*
X135678722Y-95681500D01*
X135441278Y-95681500D01*
X135441273Y-95681500D01*
X135206758Y-95718643D01*
X134980932Y-95792019D01*
X134769372Y-95899815D01*
X134577275Y-96039382D01*
X134409382Y-96207275D01*
X134409375Y-96207284D01*
X134390317Y-96233515D01*
X134334987Y-96276181D01*
X134265374Y-96282159D01*
X134203579Y-96249553D01*
X134189683Y-96233515D01*
X134170624Y-96207284D01*
X134170622Y-96207281D01*
X134170620Y-96207278D01*
X134002722Y-96039380D01*
X133810627Y-95899815D01*
X133756202Y-95872084D01*
X133599067Y-95792019D01*
X133373241Y-95718643D01*
X133138727Y-95681500D01*
X133138722Y-95681500D01*
X132901278Y-95681500D01*
X132901273Y-95681500D01*
X132666758Y-95718643D01*
X132440932Y-95792019D01*
X132229372Y-95899815D01*
X132037275Y-96039382D01*
X131869382Y-96207275D01*
X131869375Y-96207284D01*
X131850317Y-96233515D01*
X131794987Y-96276181D01*
X131725374Y-96282159D01*
X131663579Y-96249553D01*
X131649683Y-96233515D01*
X131630624Y-96207284D01*
X131630622Y-96207281D01*
X131630620Y-96207278D01*
X131462722Y-96039380D01*
X131270627Y-95899815D01*
X131216202Y-95872084D01*
X131059067Y-95792019D01*
X130833241Y-95718643D01*
X130598727Y-95681500D01*
X130598722Y-95681500D01*
X130361278Y-95681500D01*
X130361273Y-95681500D01*
X130126758Y-95718643D01*
X129900932Y-95792019D01*
X129689373Y-95899814D01*
X129572591Y-95984661D01*
X129506784Y-96008140D01*
X129438730Y-95992314D01*
X129397181Y-95950164D01*
X129396204Y-95950896D01*
X129390888Y-95943795D01*
X129303261Y-95826739D01*
X129186204Y-95739111D01*
X129153557Y-95726934D01*
X129049203Y-95688011D01*
X128988654Y-95681500D01*
X128988638Y-95681500D01*
X126891362Y-95681500D01*
X126891345Y-95681500D01*
X126830797Y-95688011D01*
X126830795Y-95688011D01*
X126693795Y-95739111D01*
X126576739Y-95826739D01*
X126489111Y-95943795D01*
X126438011Y-96080795D01*
X126438011Y-96080797D01*
X126431500Y-96141345D01*
X126431500Y-98778654D01*
X126438011Y-98839202D01*
X126438011Y-98839204D01*
X126476816Y-98943241D01*
X126489111Y-98976204D01*
X126576739Y-99093261D01*
X126693796Y-99180889D01*
X126830799Y-99231989D01*
X126858050Y-99234918D01*
X126891345Y-99238499D01*
X126891362Y-99238500D01*
X128988638Y-99238500D01*
X128988654Y-99238499D01*
X129015692Y-99235591D01*
X129049201Y-99231989D01*
X129186204Y-99180889D01*
X129303261Y-99093261D01*
X129390889Y-98976204D01*
X129390889Y-98976203D01*
X129396204Y-98969104D01*
X129397234Y-98969875D01*
X129440260Y-98926834D01*
X129508531Y-98911970D01*
X129572589Y-98935337D01*
X129689373Y-99020185D01*
X129768496Y-99060500D01*
X129900932Y-99127980D01*
X129900934Y-99127980D01*
X129900937Y-99127982D01*
X130021984Y-99167312D01*
X130126758Y-99201356D01*
X130361273Y-99238500D01*
X130361278Y-99238500D01*
X130598727Y-99238500D01*
X130833241Y-99201356D01*
X130858764Y-99193063D01*
X131059063Y-99127982D01*
X131270627Y-99020185D01*
X131462722Y-98880620D01*
X131630620Y-98712722D01*
X131634645Y-98707182D01*
X131649681Y-98686487D01*
X131705010Y-98643820D01*
X131774624Y-98637840D01*
X131836419Y-98670446D01*
X131850319Y-98686487D01*
X131869376Y-98712718D01*
X131869379Y-98712721D01*
X131869380Y-98712722D01*
X132037278Y-98880620D01*
X132229373Y-99020185D01*
X132308496Y-99060500D01*
X132440932Y-99127980D01*
X132440934Y-99127980D01*
X132440937Y-99127982D01*
X132561984Y-99167312D01*
X132666758Y-99201356D01*
X132901273Y-99238500D01*
X132901278Y-99238500D01*
X133138727Y-99238500D01*
X133373241Y-99201356D01*
X133398764Y-99193063D01*
X133599063Y-99127982D01*
X133810627Y-99020185D01*
X134002722Y-98880620D01*
X134170620Y-98712722D01*
X134174645Y-98707182D01*
X134189681Y-98686487D01*
X134245010Y-98643820D01*
X134314624Y-98637840D01*
X134376419Y-98670446D01*
X134390319Y-98686487D01*
X134409376Y-98712718D01*
X134409379Y-98712721D01*
X134409380Y-98712722D01*
X134577278Y-98880620D01*
X134769373Y-99020185D01*
X134848496Y-99060500D01*
X134980932Y-99127980D01*
X134980934Y-99127980D01*
X134980937Y-99127982D01*
X135101984Y-99167312D01*
X135206758Y-99201356D01*
X135441273Y-99238500D01*
X135441278Y-99238500D01*
X135678727Y-99238500D01*
X135913241Y-99201356D01*
X135938764Y-99193063D01*
X136139063Y-99127982D01*
X136350627Y-99020185D01*
X136542722Y-98880620D01*
X136710620Y-98712722D01*
X136714645Y-98707182D01*
X136729681Y-98686487D01*
X136785010Y-98643820D01*
X136854624Y-98637840D01*
X136916419Y-98670446D01*
X136930319Y-98686487D01*
X136949376Y-98712718D01*
X136949379Y-98712721D01*
X136949380Y-98712722D01*
X137117278Y-98880620D01*
X137309373Y-99020185D01*
X137388496Y-99060500D01*
X137520932Y-99127980D01*
X137520934Y-99127980D01*
X137520937Y-99127982D01*
X137641984Y-99167312D01*
X137746758Y-99201356D01*
X137981273Y-99238500D01*
X137981278Y-99238500D01*
X138218727Y-99238500D01*
X138453241Y-99201356D01*
X138478764Y-99193063D01*
X138679063Y-99127982D01*
X138890627Y-99020185D01*
X139082722Y-98880620D01*
X139250620Y-98712722D01*
X139274935Y-98679253D01*
X139330261Y-98636589D01*
X139399874Y-98630608D01*
X139461670Y-98663212D01*
X139475570Y-98679252D01*
X139495863Y-98707183D01*
X139662813Y-98874133D01*
X139853828Y-99012914D01*
X140064195Y-99120102D01*
X140288744Y-99193063D01*
X140288750Y-99193065D01*
X140390000Y-99209101D01*
X140390000Y-97893012D01*
X140447007Y-97925925D01*
X140574174Y-97960000D01*
X140705826Y-97960000D01*
X140832993Y-97925925D01*
X140890000Y-97893012D01*
X140890000Y-99209100D01*
X140991249Y-99193065D01*
X140991255Y-99193063D01*
X141215804Y-99120102D01*
X141426171Y-99012914D01*
X141617186Y-98874133D01*
X141784139Y-98707180D01*
X141809681Y-98672024D01*
X141865010Y-98629358D01*
X141934623Y-98623377D01*
X141996419Y-98655982D01*
X142010319Y-98672024D01*
X142035860Y-98707180D01*
X142202813Y-98874133D01*
X142393828Y-99012914D01*
X142604195Y-99120102D01*
X142828744Y-99193063D01*
X142828750Y-99193065D01*
X142930000Y-99209101D01*
X142930000Y-97893012D01*
X142987007Y-97925925D01*
X143114174Y-97960000D01*
X143245826Y-97960000D01*
X143372993Y-97925925D01*
X143430000Y-97893012D01*
X143430000Y-99209100D01*
X143531249Y-99193065D01*
X143531255Y-99193063D01*
X143755804Y-99120102D01*
X143966171Y-99012914D01*
X144157186Y-98874133D01*
X144324137Y-98707182D01*
X144344426Y-98679256D01*
X144399755Y-98636589D01*
X144469368Y-98630608D01*
X144531164Y-98663212D01*
X144545064Y-98679254D01*
X144565355Y-98707182D01*
X144569380Y-98712722D01*
X144737278Y-98880620D01*
X144929373Y-99020185D01*
X145008496Y-99060500D01*
X145140932Y-99127980D01*
X145140934Y-99127980D01*
X145140937Y-99127982D01*
X145261984Y-99167312D01*
X145366758Y-99201356D01*
X145601273Y-99238500D01*
X145601278Y-99238500D01*
X145838727Y-99238500D01*
X146073241Y-99201356D01*
X146098764Y-99193063D01*
X146299063Y-99127982D01*
X146510627Y-99020185D01*
X146702722Y-98880620D01*
X146870620Y-98712722D01*
X147010185Y-98520627D01*
X147117982Y-98309063D01*
X147191356Y-98083241D01*
X147192760Y-98074379D01*
X147228500Y-97848727D01*
X147228500Y-97071272D01*
X147191356Y-96836758D01*
X147121302Y-96621155D01*
X147117982Y-96610937D01*
X147117980Y-96610934D01*
X147117980Y-96610932D01*
X147061114Y-96499328D01*
X147010185Y-96399373D01*
X146870620Y-96207278D01*
X146702722Y-96039380D01*
X146510627Y-95899815D01*
X146456202Y-95872084D01*
X146299067Y-95792019D01*
X146073241Y-95718643D01*
X145838727Y-95681500D01*
X145838722Y-95681500D01*
X145601278Y-95681500D01*
X145601273Y-95681500D01*
X145366758Y-95718643D01*
X145140932Y-95792019D01*
X144929372Y-95899815D01*
X144737275Y-96039382D01*
X144569379Y-96207278D01*
X144545063Y-96240747D01*
X144489733Y-96283412D01*
X144420119Y-96289390D01*
X144358325Y-96256783D01*
X144344428Y-96240746D01*
X144324134Y-96212814D01*
X144157186Y-96045866D01*
X143966171Y-95907085D01*
X143755802Y-95799897D01*
X143531247Y-95726934D01*
X143430000Y-95710897D01*
X143430000Y-97026988D01*
X143372993Y-96994075D01*
X143245826Y-96960000D01*
X143114174Y-96960000D01*
X142987007Y-96994075D01*
X142930000Y-97026988D01*
X142930000Y-95710897D01*
X142828752Y-95726934D01*
X142604197Y-95799897D01*
X142393828Y-95907085D01*
X142202813Y-96045866D01*
X142035866Y-96212813D01*
X142035861Y-96212819D01*
X142010318Y-96247977D01*
X141954988Y-96290643D01*
X141885375Y-96296622D01*
X141823580Y-96264016D01*
X141809682Y-96247977D01*
X141784138Y-96212819D01*
X141784133Y-96212813D01*
X141617186Y-96045866D01*
X141426171Y-95907085D01*
X141215802Y-95799897D01*
X140991247Y-95726934D01*
X140890000Y-95710897D01*
X140890000Y-97026988D01*
X140832993Y-96994075D01*
X140705826Y-96960000D01*
X140574174Y-96960000D01*
X140447007Y-96994075D01*
X140390000Y-97026988D01*
X140390000Y-95710897D01*
X140288752Y-95726934D01*
X140064197Y-95799897D01*
X139853828Y-95907085D01*
X139662813Y-96045866D01*
X139495866Y-96212813D01*
X139495861Y-96212819D01*
X139475569Y-96240748D01*
X139420238Y-96283412D01*
X139350624Y-96289390D01*
X139288830Y-96256782D01*
X139274935Y-96240745D01*
X139269140Y-96232769D01*
X139250620Y-96207278D01*
X139082722Y-96039380D01*
X138959613Y-95949936D01*
X138916949Y-95894607D01*
X138908500Y-95849619D01*
X138908500Y-91020369D01*
X138908499Y-91020365D01*
X138902757Y-90991500D01*
X138877430Y-90864169D01*
X138846956Y-90790600D01*
X138846956Y-90790599D01*
X138846956Y-90790598D01*
X138816487Y-90717039D01*
X138816486Y-90717038D01*
X138816484Y-90717032D01*
X138781991Y-90665409D01*
X138728003Y-90584610D01*
X137027387Y-88883994D01*
X142730000Y-88883994D01*
X142730000Y-89116005D01*
X142730001Y-89116022D01*
X142760283Y-89346040D01*
X142760286Y-89346053D01*
X142820336Y-89570167D01*
X142909124Y-89784521D01*
X142909132Y-89784538D01*
X143025136Y-89985461D01*
X143025142Y-89985469D01*
X143084117Y-90062327D01*
X144100000Y-89046445D01*
X144100000Y-89052661D01*
X144127259Y-89154394D01*
X144179920Y-89245606D01*
X144254394Y-89320080D01*
X144345606Y-89372741D01*
X144447339Y-89400000D01*
X144453554Y-89400000D01*
X143437671Y-90415881D01*
X143514530Y-90474857D01*
X143514538Y-90474863D01*
X143715461Y-90590867D01*
X143715478Y-90590875D01*
X143929832Y-90679663D01*
X144153946Y-90739713D01*
X144153959Y-90739716D01*
X144383977Y-90769998D01*
X144383995Y-90770000D01*
X144616005Y-90770000D01*
X144616022Y-90769998D01*
X144846040Y-90739716D01*
X144846053Y-90739713D01*
X145070167Y-90679663D01*
X145284521Y-90590875D01*
X145284538Y-90590867D01*
X145485475Y-90474855D01*
X145562327Y-90415883D01*
X145562327Y-90415880D01*
X144546446Y-89400000D01*
X144552661Y-89400000D01*
X144654394Y-89372741D01*
X144745606Y-89320080D01*
X144820080Y-89245606D01*
X144872741Y-89154394D01*
X144900000Y-89052661D01*
X144900000Y-89046447D01*
X145915880Y-90062327D01*
X145915883Y-90062327D01*
X145974855Y-89985475D01*
X146090867Y-89784538D01*
X146090875Y-89784521D01*
X146179663Y-89570167D01*
X146239713Y-89346053D01*
X146239716Y-89346040D01*
X146269998Y-89116022D01*
X146270000Y-89116005D01*
X146270000Y-88883994D01*
X146269998Y-88883977D01*
X146239716Y-88653959D01*
X146239713Y-88653946D01*
X146179663Y-88429832D01*
X146090875Y-88215478D01*
X146090867Y-88215461D01*
X145974863Y-88014538D01*
X145974857Y-88014530D01*
X145915881Y-87937671D01*
X144900000Y-88953552D01*
X144900000Y-88947339D01*
X144872741Y-88845606D01*
X144820080Y-88754394D01*
X144745606Y-88679920D01*
X144654394Y-88627259D01*
X144552661Y-88600000D01*
X144546447Y-88600000D01*
X145562327Y-87584117D01*
X145485469Y-87525142D01*
X145485461Y-87525136D01*
X145284538Y-87409132D01*
X145284521Y-87409124D01*
X145070167Y-87320336D01*
X144846053Y-87260286D01*
X144846040Y-87260283D01*
X144616022Y-87230001D01*
X144616005Y-87230000D01*
X144383995Y-87230000D01*
X144383977Y-87230001D01*
X144153959Y-87260283D01*
X144153946Y-87260286D01*
X143929832Y-87320336D01*
X143715478Y-87409124D01*
X143715461Y-87409132D01*
X143514541Y-87525134D01*
X143514533Y-87525140D01*
X143437671Y-87584116D01*
X143437671Y-87584117D01*
X144453554Y-88600000D01*
X144447339Y-88600000D01*
X144345606Y-88627259D01*
X144254394Y-88679920D01*
X144179920Y-88754394D01*
X144127259Y-88845606D01*
X144100000Y-88947339D01*
X144100000Y-88953553D01*
X143084117Y-87937671D01*
X143084116Y-87937671D01*
X143025140Y-88014533D01*
X143025134Y-88014541D01*
X142909132Y-88215461D01*
X142909124Y-88215478D01*
X142820336Y-88429832D01*
X142760286Y-88653946D01*
X142760283Y-88653959D01*
X142730001Y-88883977D01*
X142730000Y-88883994D01*
X137027387Y-88883994D01*
X136444241Y-88300848D01*
X136410756Y-88239525D01*
X136407922Y-88213167D01*
X136407922Y-83920369D01*
X136407921Y-83920365D01*
X136376853Y-83764176D01*
X136376852Y-83764169D01*
X136370723Y-83749372D01*
X136359001Y-83721072D01*
X136315909Y-83617038D01*
X136315902Y-83617025D01*
X136227425Y-83484611D01*
X136227422Y-83484607D01*
X134502995Y-81760181D01*
X134469510Y-81698858D01*
X134474494Y-81629166D01*
X134516366Y-81573233D01*
X134581830Y-81548816D01*
X134590676Y-81548500D01*
X134908727Y-81548500D01*
X135143241Y-81511356D01*
X135168758Y-81503065D01*
X135369063Y-81437982D01*
X135580627Y-81330185D01*
X135772722Y-81190620D01*
X135940620Y-81022722D01*
X136080185Y-80830627D01*
X136187982Y-80619063D01*
X136261356Y-80393241D01*
X136278404Y-80285606D01*
X136298500Y-80158727D01*
X136298500Y-79921272D01*
X136261356Y-79686758D01*
X136187980Y-79460932D01*
X136095025Y-79278499D01*
X136080185Y-79249373D01*
X135940620Y-79057278D01*
X135772722Y-78889380D01*
X135772718Y-78889376D01*
X135746487Y-78870319D01*
X135703820Y-78814990D01*
X135697840Y-78745376D01*
X135730446Y-78683581D01*
X135746487Y-78669681D01*
X135772718Y-78650623D01*
X135772718Y-78650622D01*
X135772722Y-78650620D01*
X135940620Y-78482722D01*
X136030063Y-78359613D01*
X136085393Y-78316949D01*
X136130381Y-78308500D01*
X136920370Y-78308500D01*
X138113746Y-78308500D01*
X138180785Y-78328185D01*
X138201427Y-78344819D01*
X143255610Y-83399002D01*
X143289095Y-83460325D01*
X143287704Y-83518776D01*
X143251933Y-83652276D01*
X143251931Y-83652288D01*
X143221500Y-83883423D01*
X143221500Y-84116576D01*
X143246845Y-84309083D01*
X143251931Y-84347713D01*
X143292736Y-84499999D01*
X143312271Y-84572906D01*
X143312274Y-84572916D01*
X143401485Y-84788291D01*
X143401490Y-84788301D01*
X143518057Y-84990201D01*
X143659982Y-85175161D01*
X143659988Y-85175168D01*
X143824831Y-85340011D01*
X143824838Y-85340017D01*
X144009798Y-85481942D01*
X144211698Y-85598509D01*
X144211708Y-85598514D01*
X144396751Y-85675161D01*
X144427093Y-85687729D01*
X144652287Y-85748069D01*
X144883431Y-85778500D01*
X144883438Y-85778500D01*
X145116562Y-85778500D01*
X145116569Y-85778500D01*
X145347713Y-85748069D01*
X145572907Y-85687729D01*
X145788298Y-85598511D01*
X145990202Y-85481942D01*
X146175163Y-85340016D01*
X146340016Y-85175163D01*
X146481942Y-84990202D01*
X146598511Y-84788298D01*
X146687729Y-84572907D01*
X146748069Y-84347713D01*
X146778500Y-84116569D01*
X146778500Y-83883431D01*
X146778499Y-83883423D01*
X147221500Y-83883423D01*
X147221500Y-84116576D01*
X147246845Y-84309083D01*
X147251931Y-84347713D01*
X147292736Y-84499999D01*
X147312271Y-84572906D01*
X147312274Y-84572916D01*
X147401485Y-84788291D01*
X147401490Y-84788301D01*
X147518057Y-84990201D01*
X147659982Y-85175161D01*
X147659988Y-85175168D01*
X147824831Y-85340011D01*
X147824838Y-85340017D01*
X148009798Y-85481942D01*
X148211698Y-85598509D01*
X148211713Y-85598516D01*
X148414952Y-85682700D01*
X148469356Y-85726541D01*
X148491421Y-85792835D01*
X148491500Y-85797261D01*
X148491500Y-87470947D01*
X148471815Y-87537986D01*
X148442988Y-87569322D01*
X148324829Y-87659990D01*
X148324828Y-87659992D01*
X148159988Y-87824831D01*
X148159982Y-87824838D01*
X148018057Y-88009798D01*
X147901490Y-88211698D01*
X147901485Y-88211708D01*
X147812274Y-88427083D01*
X147812271Y-88427093D01*
X147751932Y-88652284D01*
X147751930Y-88652295D01*
X147721500Y-88883423D01*
X147721500Y-89116576D01*
X147743072Y-89280424D01*
X147751931Y-89347713D01*
X147780078Y-89452759D01*
X147812271Y-89572906D01*
X147812274Y-89572916D01*
X147901485Y-89788291D01*
X147901490Y-89788301D01*
X148018057Y-89990201D01*
X148159982Y-90175161D01*
X148159988Y-90175168D01*
X148324831Y-90340011D01*
X148324838Y-90340017D01*
X148509798Y-90481942D01*
X148711698Y-90598509D01*
X148711708Y-90598514D01*
X148907620Y-90679663D01*
X148927093Y-90687729D01*
X149152287Y-90748069D01*
X149305808Y-90768280D01*
X149369703Y-90796545D01*
X149377303Y-90803537D01*
X149955181Y-91381415D01*
X149988666Y-91442738D01*
X149991500Y-91469096D01*
X149991500Y-95557500D01*
X149971815Y-95624539D01*
X149919011Y-95670294D01*
X149867500Y-95681500D01*
X149751345Y-95681500D01*
X149690797Y-95688011D01*
X149690795Y-95688011D01*
X149553795Y-95739111D01*
X149436739Y-95826739D01*
X149349111Y-95943795D01*
X149298011Y-96080795D01*
X149298011Y-96080797D01*
X149291500Y-96141345D01*
X149291500Y-98778654D01*
X149298011Y-98839202D01*
X149298011Y-98839204D01*
X149336816Y-98943241D01*
X149349111Y-98976204D01*
X149436739Y-99093261D01*
X149553796Y-99180889D01*
X149690799Y-99231989D01*
X149718050Y-99234918D01*
X149751345Y-99238499D01*
X149751362Y-99238500D01*
X151848638Y-99238500D01*
X151848654Y-99238499D01*
X151875692Y-99235591D01*
X151909201Y-99231989D01*
X152046204Y-99180889D01*
X152163261Y-99093261D01*
X152250889Y-98976204D01*
X152250889Y-98976203D01*
X152256204Y-98969104D01*
X152257234Y-98969875D01*
X152300260Y-98926834D01*
X152368531Y-98911970D01*
X152432589Y-98935337D01*
X152549373Y-99020185D01*
X152628496Y-99060500D01*
X152760932Y-99127980D01*
X152760934Y-99127980D01*
X152760937Y-99127982D01*
X152881984Y-99167312D01*
X152986758Y-99201356D01*
X153221273Y-99238500D01*
X153221278Y-99238500D01*
X153458727Y-99238500D01*
X153693241Y-99201356D01*
X153718764Y-99193063D01*
X153919063Y-99127982D01*
X154130627Y-99020185D01*
X154322722Y-98880620D01*
X154490620Y-98712722D01*
X154494645Y-98707182D01*
X154509681Y-98686487D01*
X154565010Y-98643820D01*
X154634624Y-98637840D01*
X154696419Y-98670446D01*
X154710319Y-98686487D01*
X154729376Y-98712718D01*
X154729379Y-98712721D01*
X154729380Y-98712722D01*
X154897278Y-98880620D01*
X155089373Y-99020185D01*
X155168496Y-99060500D01*
X155300932Y-99127980D01*
X155300934Y-99127980D01*
X155300937Y-99127982D01*
X155421984Y-99167312D01*
X155526758Y-99201356D01*
X155761273Y-99238500D01*
X155761278Y-99238500D01*
X155998727Y-99238500D01*
X156233241Y-99201356D01*
X156258764Y-99193063D01*
X156459063Y-99127982D01*
X156670627Y-99020185D01*
X156862722Y-98880620D01*
X157030620Y-98712722D01*
X157034645Y-98707182D01*
X157049681Y-98686487D01*
X157105010Y-98643820D01*
X157174624Y-98637840D01*
X157236419Y-98670446D01*
X157250319Y-98686487D01*
X157269376Y-98712718D01*
X157269379Y-98712721D01*
X157269380Y-98712722D01*
X157437278Y-98880620D01*
X157629373Y-99020185D01*
X157708496Y-99060500D01*
X157840932Y-99127980D01*
X157840934Y-99127980D01*
X157840937Y-99127982D01*
X157961984Y-99167312D01*
X158066758Y-99201356D01*
X158301273Y-99238500D01*
X158301278Y-99238500D01*
X158538727Y-99238500D01*
X158773241Y-99201356D01*
X158798764Y-99193063D01*
X158999063Y-99127982D01*
X159210627Y-99020185D01*
X159402722Y-98880620D01*
X159570620Y-98712722D01*
X159574645Y-98707182D01*
X159589681Y-98686487D01*
X159645010Y-98643820D01*
X159714624Y-98637840D01*
X159776419Y-98670446D01*
X159790319Y-98686487D01*
X159809376Y-98712718D01*
X159809379Y-98712721D01*
X159809380Y-98712722D01*
X159977278Y-98880620D01*
X160169373Y-99020185D01*
X160248496Y-99060500D01*
X160380932Y-99127980D01*
X160380934Y-99127980D01*
X160380937Y-99127982D01*
X160501984Y-99167312D01*
X160606758Y-99201356D01*
X160841273Y-99238500D01*
X160841278Y-99238500D01*
X161078727Y-99238500D01*
X161313241Y-99201356D01*
X161338764Y-99193063D01*
X161539063Y-99127982D01*
X161750627Y-99020185D01*
X161942722Y-98880620D01*
X162110620Y-98712722D01*
X162114645Y-98707182D01*
X162129681Y-98686487D01*
X162185010Y-98643820D01*
X162254624Y-98637840D01*
X162316419Y-98670446D01*
X162330319Y-98686487D01*
X162349376Y-98712718D01*
X162349379Y-98712721D01*
X162349380Y-98712722D01*
X162517278Y-98880620D01*
X162709373Y-99020185D01*
X162788496Y-99060500D01*
X162920932Y-99127980D01*
X162920934Y-99127980D01*
X162920937Y-99127982D01*
X163041984Y-99167312D01*
X163146758Y-99201356D01*
X163381273Y-99238500D01*
X163381278Y-99238500D01*
X163618727Y-99238500D01*
X163853241Y-99201356D01*
X163878764Y-99193063D01*
X164079063Y-99127982D01*
X164290627Y-99020185D01*
X164482722Y-98880620D01*
X164650620Y-98712722D01*
X164790185Y-98520627D01*
X164897982Y-98309063D01*
X164971356Y-98083241D01*
X164972760Y-98074379D01*
X165008500Y-97848727D01*
X165008500Y-97071272D01*
X164971356Y-96836758D01*
X164901302Y-96621155D01*
X164897982Y-96610937D01*
X164897980Y-96610934D01*
X164897980Y-96610932D01*
X164841114Y-96499328D01*
X164790185Y-96399373D01*
X164650620Y-96207278D01*
X164482722Y-96039380D01*
X164359613Y-95949936D01*
X164316949Y-95894607D01*
X164308500Y-95849619D01*
X164308500Y-94420369D01*
X164308499Y-94420365D01*
X164277431Y-94264176D01*
X164277430Y-94264169D01*
X164216483Y-94117032D01*
X164128003Y-93984611D01*
X164127998Y-93984605D01*
X164015394Y-93872001D01*
X164015387Y-93871995D01*
X163882969Y-93783517D01*
X163735831Y-93722570D01*
X163735823Y-93722568D01*
X163579634Y-93691500D01*
X163579630Y-93691500D01*
X163432500Y-93691500D01*
X163365461Y-93671815D01*
X163319706Y-93619011D01*
X163308500Y-93567500D01*
X163308500Y-92254038D01*
X164439500Y-92254038D01*
X164439500Y-92505961D01*
X164478910Y-92754785D01*
X164556760Y-92994383D01*
X164671132Y-93218848D01*
X164819201Y-93422649D01*
X164819205Y-93422654D01*
X164997345Y-93600794D01*
X164997350Y-93600798D01*
X165122192Y-93691500D01*
X165201155Y-93748870D01*
X165344184Y-93821747D01*
X165425616Y-93863239D01*
X165425618Y-93863239D01*
X165425621Y-93863241D01*
X165665215Y-93941090D01*
X165914038Y-93980500D01*
X165914039Y-93980500D01*
X166165961Y-93980500D01*
X166165962Y-93980500D01*
X166414785Y-93941090D01*
X166654379Y-93863241D01*
X166878845Y-93748870D01*
X167082656Y-93600793D01*
X167260793Y-93422656D01*
X167408870Y-93218845D01*
X167523241Y-92994379D01*
X167601090Y-92754785D01*
X167640500Y-92505962D01*
X167640500Y-92254038D01*
X167601090Y-92005215D01*
X167523241Y-91765621D01*
X167523239Y-91765618D01*
X167523239Y-91765616D01*
X167481747Y-91684184D01*
X167408870Y-91541155D01*
X167368982Y-91486254D01*
X167260798Y-91337350D01*
X167260794Y-91337345D01*
X167082654Y-91159205D01*
X167082649Y-91159201D01*
X166878848Y-91011132D01*
X166878847Y-91011131D01*
X166878845Y-91011130D01*
X166808747Y-90975413D01*
X166654383Y-90896760D01*
X166414785Y-90818910D01*
X166317724Y-90803537D01*
X166165962Y-90779500D01*
X165914038Y-90779500D01*
X165843956Y-90790600D01*
X165665214Y-90818910D01*
X165425616Y-90896760D01*
X165201151Y-91011132D01*
X164997350Y-91159201D01*
X164997345Y-91159205D01*
X164819205Y-91337345D01*
X164819201Y-91337350D01*
X164671132Y-91541151D01*
X164556760Y-91765616D01*
X164478910Y-92005214D01*
X164439500Y-92254038D01*
X163308500Y-92254038D01*
X163308500Y-86920369D01*
X163308499Y-86920365D01*
X163277431Y-86764176D01*
X163277430Y-86764169D01*
X163216483Y-86617032D01*
X163128003Y-86484611D01*
X163127998Y-86484605D01*
X163015394Y-86372001D01*
X163015387Y-86371995D01*
X162882969Y-86283517D01*
X162735831Y-86222570D01*
X162735823Y-86222568D01*
X162579634Y-86191500D01*
X162579630Y-86191500D01*
X161210518Y-86191500D01*
X161143479Y-86171815D01*
X161125856Y-86157614D01*
X161125835Y-86157640D01*
X161124944Y-86156879D01*
X161122837Y-86155181D01*
X161122137Y-86154481D01*
X161122132Y-86154477D01*
X160980984Y-86051928D01*
X160980983Y-86051927D01*
X160980981Y-86051926D01*
X160901359Y-86011356D01*
X160825516Y-85972711D01*
X160825513Y-85972710D01*
X160659575Y-85918795D01*
X160573407Y-85905147D01*
X160487241Y-85891500D01*
X159512759Y-85891500D01*
X159455314Y-85900598D01*
X159340424Y-85918795D01*
X159174486Y-85972710D01*
X159174483Y-85972711D01*
X159019015Y-86051928D01*
X158877867Y-86154477D01*
X158877862Y-86154481D01*
X158754481Y-86277862D01*
X158754477Y-86277867D01*
X158651928Y-86419015D01*
X158572711Y-86574483D01*
X158572710Y-86574486D01*
X158518795Y-86740424D01*
X158491500Y-86912759D01*
X158491500Y-87087240D01*
X158518795Y-87259575D01*
X158572710Y-87425513D01*
X158572711Y-87425516D01*
X158599303Y-87477704D01*
X158645985Y-87569322D01*
X158651928Y-87580984D01*
X158754477Y-87722132D01*
X158754481Y-87722137D01*
X158877862Y-87845518D01*
X158877867Y-87845522D01*
X158997583Y-87932500D01*
X159019019Y-87948074D01*
X159120646Y-87999856D01*
X159174483Y-88027288D01*
X159174486Y-88027289D01*
X159257455Y-88054246D01*
X159340426Y-88081205D01*
X159512759Y-88108500D01*
X159512760Y-88108500D01*
X160487240Y-88108500D01*
X160487241Y-88108500D01*
X160659574Y-88081205D01*
X160825516Y-88027288D01*
X160980981Y-87948074D01*
X161122139Y-87845517D01*
X161122837Y-87844819D01*
X161123167Y-87844638D01*
X161125835Y-87842360D01*
X161126313Y-87842920D01*
X161184160Y-87811334D01*
X161210518Y-87808500D01*
X161567500Y-87808500D01*
X161634539Y-87828185D01*
X161680294Y-87880989D01*
X161691500Y-87932500D01*
X161691500Y-89144739D01*
X161671815Y-89211778D01*
X161619011Y-89257533D01*
X161549853Y-89267477D01*
X161486297Y-89238452D01*
X161449569Y-89183057D01*
X161427289Y-89114486D01*
X161427288Y-89114483D01*
X161395787Y-89052661D01*
X161348074Y-88959019D01*
X161334971Y-88940984D01*
X161245522Y-88817867D01*
X161245518Y-88817862D01*
X161122137Y-88694481D01*
X161122132Y-88694477D01*
X160980984Y-88591928D01*
X160980983Y-88591927D01*
X160980981Y-88591926D01*
X160931175Y-88566548D01*
X160825516Y-88512711D01*
X160825513Y-88512710D01*
X160659575Y-88458795D01*
X160573407Y-88445147D01*
X160487241Y-88431500D01*
X159512759Y-88431500D01*
X159455314Y-88440598D01*
X159340424Y-88458795D01*
X159174486Y-88512710D01*
X159174483Y-88512711D01*
X159019015Y-88591928D01*
X158877867Y-88694477D01*
X158877862Y-88694481D01*
X158754481Y-88817862D01*
X158754477Y-88817867D01*
X158651928Y-88959015D01*
X158572711Y-89114483D01*
X158572710Y-89114486D01*
X158518795Y-89280424D01*
X158491500Y-89452759D01*
X158491500Y-89627240D01*
X158518795Y-89799575D01*
X158572710Y-89965513D01*
X158572711Y-89965516D01*
X158651928Y-90120984D01*
X158754477Y-90262132D01*
X158754481Y-90262137D01*
X158877862Y-90385518D01*
X158877867Y-90385522D01*
X158919656Y-90415883D01*
X159019019Y-90488074D01*
X159123796Y-90541460D01*
X159174591Y-90589435D01*
X159191500Y-90651945D01*
X159191500Y-91079634D01*
X159222568Y-91235823D01*
X159222570Y-91235831D01*
X159253043Y-91309399D01*
X159253043Y-91309400D01*
X159283512Y-91382961D01*
X159283519Y-91382974D01*
X159371996Y-91515388D01*
X159371999Y-91515392D01*
X160115181Y-92258573D01*
X160148666Y-92319896D01*
X160151500Y-92346254D01*
X160151500Y-95849619D01*
X160131815Y-95916658D01*
X160100387Y-95949935D01*
X159977278Y-96039380D01*
X159977276Y-96039382D01*
X159977275Y-96039382D01*
X159809382Y-96207275D01*
X159809375Y-96207284D01*
X159790317Y-96233515D01*
X159734987Y-96276181D01*
X159665374Y-96282159D01*
X159603579Y-96249553D01*
X159589683Y-96233515D01*
X159570624Y-96207284D01*
X159570622Y-96207281D01*
X159570620Y-96207278D01*
X159402722Y-96039380D01*
X159210627Y-95899815D01*
X159156202Y-95872084D01*
X158999067Y-95792019D01*
X158773241Y-95718643D01*
X158538727Y-95681500D01*
X158538722Y-95681500D01*
X158301278Y-95681500D01*
X158301273Y-95681500D01*
X158066758Y-95718643D01*
X157840932Y-95792019D01*
X157629372Y-95899815D01*
X157437275Y-96039382D01*
X157269382Y-96207275D01*
X157269375Y-96207284D01*
X157250317Y-96233515D01*
X157194987Y-96276181D01*
X157125374Y-96282159D01*
X157063579Y-96249553D01*
X157049683Y-96233515D01*
X157030624Y-96207284D01*
X157030622Y-96207281D01*
X157030620Y-96207278D01*
X156862722Y-96039380D01*
X156670627Y-95899815D01*
X156616202Y-95872084D01*
X156459067Y-95792019D01*
X156233241Y-95718643D01*
X155998727Y-95681500D01*
X155998722Y-95681500D01*
X155761278Y-95681500D01*
X155761273Y-95681500D01*
X155526758Y-95718643D01*
X155300932Y-95792019D01*
X155089372Y-95899815D01*
X154897275Y-96039382D01*
X154729382Y-96207275D01*
X154729375Y-96207284D01*
X154710317Y-96233515D01*
X154654987Y-96276181D01*
X154585374Y-96282159D01*
X154523579Y-96249553D01*
X154509683Y-96233515D01*
X154490624Y-96207284D01*
X154490622Y-96207281D01*
X154490620Y-96207278D01*
X154322722Y-96039380D01*
X154130627Y-95899815D01*
X154130626Y-95899814D01*
X154130624Y-95899813D01*
X154076204Y-95872084D01*
X154025409Y-95824109D01*
X154008500Y-95761600D01*
X154008500Y-93676204D01*
X154028185Y-93609165D01*
X154044819Y-93588523D01*
X154088523Y-93544819D01*
X154150620Y-93482722D01*
X154290185Y-93290627D01*
X154397982Y-93079063D01*
X154471356Y-92853241D01*
X154486950Y-92754785D01*
X154508500Y-92618727D01*
X154508500Y-92381272D01*
X154471356Y-92146758D01*
X154437312Y-92041984D01*
X154397982Y-91920937D01*
X154397980Y-91920934D01*
X154397980Y-91920932D01*
X154290184Y-91709372D01*
X154150620Y-91517278D01*
X153982722Y-91349380D01*
X153790627Y-91209815D01*
X153579067Y-91102019D01*
X153353241Y-91028643D01*
X153118727Y-90991500D01*
X153118722Y-90991500D01*
X152881278Y-90991500D01*
X152881273Y-90991500D01*
X152646758Y-91028643D01*
X152420932Y-91102019D01*
X152209370Y-91209816D01*
X152205379Y-91212716D01*
X152139571Y-91236191D01*
X152071518Y-91220362D01*
X152022827Y-91170253D01*
X152008500Y-91112393D01*
X152008500Y-90900670D01*
X152008499Y-90900666D01*
X151987788Y-90796545D01*
X151969744Y-90705831D01*
X151893721Y-90522296D01*
X151893720Y-90522295D01*
X151893717Y-90522289D01*
X151783354Y-90357120D01*
X151766245Y-90340011D01*
X151642881Y-90216647D01*
X151191079Y-89764845D01*
X151157594Y-89703522D01*
X151162578Y-89633830D01*
X151164181Y-89629753D01*
X151187729Y-89572907D01*
X151248069Y-89347713D01*
X151278500Y-89116569D01*
X151278500Y-88883431D01*
X151248069Y-88652287D01*
X151187729Y-88427093D01*
X151135437Y-88300848D01*
X151098514Y-88211708D01*
X151098509Y-88211698D01*
X150981942Y-88009798D01*
X150840017Y-87824838D01*
X150840011Y-87824831D01*
X150675170Y-87659990D01*
X150675165Y-87659986D01*
X150675163Y-87659984D01*
X150625026Y-87621512D01*
X150557012Y-87569322D01*
X150515810Y-87512893D01*
X150508500Y-87470947D01*
X150508500Y-84977427D01*
X150525113Y-84915427D01*
X150549758Y-84872741D01*
X150598511Y-84788298D01*
X150687729Y-84572907D01*
X150748069Y-84347713D01*
X150778500Y-84116569D01*
X150778500Y-83883431D01*
X150748069Y-83652287D01*
X150687729Y-83427093D01*
X150687725Y-83427083D01*
X150598514Y-83211708D01*
X150598509Y-83211698D01*
X150481942Y-83009798D01*
X150340017Y-82824838D01*
X150340011Y-82824831D01*
X150175168Y-82659988D01*
X150175161Y-82659982D01*
X149990201Y-82518057D01*
X149788301Y-82401490D01*
X149788291Y-82401485D01*
X149572916Y-82312274D01*
X149572909Y-82312272D01*
X149572907Y-82312271D01*
X149347713Y-82251931D01*
X149309083Y-82246845D01*
X149116576Y-82221500D01*
X149116569Y-82221500D01*
X148883431Y-82221500D01*
X148883423Y-82221500D01*
X148663414Y-82250466D01*
X148652287Y-82251931D01*
X148652280Y-82251933D01*
X148427093Y-82312271D01*
X148427083Y-82312274D01*
X148211708Y-82401485D01*
X148211698Y-82401490D01*
X148009798Y-82518057D01*
X147824838Y-82659982D01*
X147824831Y-82659988D01*
X147659988Y-82824831D01*
X147659982Y-82824838D01*
X147518057Y-83009798D01*
X147401490Y-83211698D01*
X147401485Y-83211708D01*
X147312274Y-83427083D01*
X147312271Y-83427093D01*
X147257417Y-83631815D01*
X147251932Y-83652284D01*
X147251930Y-83652295D01*
X147221500Y-83883423D01*
X146778499Y-83883423D01*
X146748069Y-83652287D01*
X146687729Y-83427093D01*
X146687725Y-83427083D01*
X146598514Y-83211708D01*
X146598509Y-83211698D01*
X146481942Y-83009798D01*
X146340017Y-82824838D01*
X146340011Y-82824831D01*
X146175168Y-82659988D01*
X146175161Y-82659982D01*
X145990201Y-82518057D01*
X145788301Y-82401490D01*
X145788291Y-82401485D01*
X145572916Y-82312274D01*
X145572909Y-82312272D01*
X145572907Y-82312271D01*
X145347713Y-82251931D01*
X145309083Y-82246845D01*
X145116576Y-82221500D01*
X145116569Y-82221500D01*
X144883431Y-82221500D01*
X144883423Y-82221500D01*
X144677969Y-82248549D01*
X144652287Y-82251931D01*
X144652285Y-82251931D01*
X144652276Y-82251933D01*
X144518776Y-82287704D01*
X144448926Y-82286041D01*
X144399002Y-82255610D01*
X143499924Y-81356532D01*
X143415547Y-81272155D01*
X158500000Y-81272155D01*
X158500000Y-82567844D01*
X158506401Y-82627372D01*
X158506403Y-82627379D01*
X158556645Y-82762086D01*
X158556649Y-82762093D01*
X158642808Y-82877185D01*
X158642813Y-82877191D01*
X158669372Y-82897073D01*
X158669373Y-82897073D01*
X159600000Y-81966447D01*
X159600000Y-81972661D01*
X159627259Y-82074394D01*
X159679920Y-82165606D01*
X159754394Y-82240080D01*
X159845606Y-82292741D01*
X159947339Y-82320000D01*
X159953552Y-82320000D01*
X159253551Y-83019999D01*
X159253552Y-83020000D01*
X160746448Y-83020000D01*
X160746448Y-83019999D01*
X160046448Y-82320000D01*
X160052661Y-82320000D01*
X160154394Y-82292741D01*
X160245606Y-82240080D01*
X160320080Y-82165606D01*
X160372741Y-82074394D01*
X160400000Y-81972661D01*
X160400000Y-81966448D01*
X161330625Y-82897073D01*
X161357189Y-82877187D01*
X161357190Y-82877186D01*
X161443352Y-82762088D01*
X161443354Y-82762086D01*
X161493596Y-82627379D01*
X161493598Y-82627372D01*
X161499999Y-82567844D01*
X161500000Y-82567827D01*
X161500000Y-81272172D01*
X161499999Y-81272155D01*
X161493598Y-81212627D01*
X161493596Y-81212620D01*
X161443354Y-81077913D01*
X161443350Y-81077906D01*
X161357191Y-80962814D01*
X161357184Y-80962807D01*
X161330626Y-80942925D01*
X161330625Y-80942925D01*
X160400000Y-81873550D01*
X160400000Y-81867339D01*
X160372741Y-81765606D01*
X160320080Y-81674394D01*
X160245606Y-81599920D01*
X160154394Y-81547259D01*
X160052661Y-81520000D01*
X160046448Y-81520000D01*
X160746448Y-80820000D01*
X159253551Y-80820000D01*
X159953552Y-81520000D01*
X159947339Y-81520000D01*
X159845606Y-81547259D01*
X159754394Y-81599920D01*
X159679920Y-81674394D01*
X159627259Y-81765606D01*
X159600000Y-81867339D01*
X159600000Y-81873551D01*
X158669373Y-80942924D01*
X158642812Y-80962809D01*
X158642807Y-80962815D01*
X158556649Y-81077906D01*
X158556645Y-81077913D01*
X158506403Y-81212620D01*
X158506401Y-81212627D01*
X158500000Y-81272155D01*
X143415547Y-81272155D01*
X139015392Y-76871999D01*
X139015388Y-76871996D01*
X138882974Y-76783519D01*
X138882970Y-76783517D01*
X138882968Y-76783516D01*
X138809399Y-76753043D01*
X138809397Y-76753042D01*
X138809396Y-76753041D01*
X138735831Y-76722570D01*
X138735823Y-76722568D01*
X138579634Y-76691500D01*
X138579630Y-76691500D01*
X137932500Y-76691500D01*
X137865461Y-76671815D01*
X137819706Y-76619011D01*
X137808500Y-76567500D01*
X137808500Y-70420369D01*
X137808499Y-70420365D01*
X137781971Y-70286998D01*
X137777430Y-70264169D01*
X137716483Y-70117032D01*
X137648001Y-70014541D01*
X137628004Y-69984612D01*
X137627998Y-69984605D01*
X137515394Y-69872001D01*
X137515387Y-69871995D01*
X137382969Y-69783517D01*
X137235831Y-69722570D01*
X137235823Y-69722568D01*
X137079634Y-69691500D01*
X137079630Y-69691500D01*
X135886254Y-69691500D01*
X135819215Y-69671815D01*
X135798573Y-69655181D01*
X134744389Y-68600997D01*
X134710904Y-68539674D01*
X134712295Y-68481223D01*
X134726822Y-68427007D01*
X134748069Y-68347713D01*
X134778500Y-68116569D01*
X134778500Y-67883431D01*
X134748069Y-67652287D01*
X134687729Y-67427093D01*
X134651661Y-67340017D01*
X134598514Y-67211708D01*
X134598509Y-67211698D01*
X134481942Y-67009798D01*
X134340017Y-66824838D01*
X134340011Y-66824831D01*
X134175168Y-66659988D01*
X134175161Y-66659982D01*
X133990210Y-66518064D01*
X133990208Y-66518063D01*
X133990202Y-66518058D01*
X133870499Y-66448947D01*
X133822284Y-66398379D01*
X133808500Y-66341560D01*
X133808500Y-64585764D01*
X133808501Y-64585743D01*
X133808501Y-64420368D01*
X133799073Y-64372974D01*
X133782531Y-64289815D01*
X133777430Y-64264169D01*
X133746965Y-64190620D01*
X133716484Y-64117032D01*
X133711053Y-64108905D01*
X133706094Y-64096003D01*
X133704332Y-64074415D01*
X133697856Y-64053744D01*
X133700730Y-64030274D01*
X133700412Y-64026365D01*
X133701447Y-64024422D01*
X133702060Y-64019421D01*
X133748069Y-63847713D01*
X133778500Y-63616569D01*
X133778500Y-63383431D01*
X133748069Y-63152287D01*
X133687729Y-62927093D01*
X133667771Y-62878910D01*
X133598514Y-62711708D01*
X133598509Y-62711698D01*
X133481942Y-62509798D01*
X133340017Y-62324838D01*
X133340011Y-62324831D01*
X133175168Y-62159988D01*
X133175161Y-62159982D01*
X133006907Y-62030876D01*
X132965704Y-61974448D01*
X132961549Y-61904702D01*
X132995761Y-61843782D01*
X133057479Y-61811029D01*
X133082393Y-61808500D01*
X134920370Y-61808500D01*
X139613746Y-61808500D01*
X139680785Y-61828185D01*
X139701427Y-61844819D01*
X141755923Y-63899315D01*
X141789408Y-63960638D01*
X141792242Y-63986996D01*
X141792242Y-70079634D01*
X141823310Y-70235823D01*
X141823312Y-70235831D01*
X141844506Y-70286997D01*
X141844506Y-70286998D01*
X141884258Y-70382968D01*
X141884259Y-70382971D01*
X141972738Y-70515388D01*
X141972741Y-70515392D01*
X145484610Y-74027261D01*
X145552938Y-74072916D01*
X145617032Y-74115742D01*
X145645761Y-74127641D01*
X145719485Y-74158179D01*
X145764169Y-74176688D01*
X145913689Y-74206429D01*
X145920365Y-74207757D01*
X145920369Y-74207758D01*
X145920370Y-74207758D01*
X156687634Y-74207758D01*
X156711825Y-74210141D01*
X156849367Y-74237499D01*
X156849369Y-74237500D01*
X156849370Y-74237500D01*
X157008631Y-74237500D01*
X157008632Y-74237499D01*
X157164831Y-74206430D01*
X157311968Y-74145483D01*
X157444389Y-74057003D01*
X157557003Y-73944389D01*
X157645483Y-73811968D01*
X157706430Y-73664831D01*
X157737500Y-73508630D01*
X157737500Y-69496372D01*
X157757185Y-69429333D01*
X157809989Y-69383578D01*
X157879147Y-69373634D01*
X157934386Y-69396055D01*
X157943824Y-69402912D01*
X158154197Y-69510102D01*
X158378752Y-69583065D01*
X158378751Y-69583065D01*
X158611948Y-69620000D01*
X159388052Y-69620000D01*
X159621247Y-69583065D01*
X159845797Y-69510104D01*
X159972165Y-69445716D01*
X159129411Y-68602962D01*
X159192993Y-68585925D01*
X159307007Y-68520099D01*
X159400099Y-68427007D01*
X159465925Y-68312993D01*
X159482962Y-68249410D01*
X160372436Y-69138884D01*
X160414133Y-69097186D01*
X160552914Y-68906171D01*
X160660102Y-68695802D01*
X160733065Y-68471247D01*
X160770000Y-68238052D01*
X160770000Y-68001947D01*
X160733065Y-67768752D01*
X160660102Y-67544197D01*
X160552914Y-67333828D01*
X160414133Y-67142813D01*
X160372436Y-67101116D01*
X159482962Y-67990589D01*
X159465925Y-67927007D01*
X159400099Y-67812993D01*
X159307007Y-67719901D01*
X159192993Y-67654075D01*
X159129408Y-67637037D01*
X159738249Y-67028197D01*
X159787609Y-66997949D01*
X159849063Y-66977982D01*
X160060627Y-66870185D01*
X160252722Y-66730620D01*
X160420620Y-66562722D01*
X160510063Y-66439613D01*
X160565393Y-66396949D01*
X160610381Y-66388500D01*
X162193746Y-66388500D01*
X162260785Y-66408185D01*
X162281427Y-66424819D01*
X163155181Y-67298573D01*
X163188666Y-67359896D01*
X163191500Y-67386254D01*
X163191500Y-82113746D01*
X163171815Y-82180785D01*
X163155181Y-82201427D01*
X161741427Y-83615181D01*
X161680104Y-83648666D01*
X161653746Y-83651500D01*
X161210518Y-83651500D01*
X161143479Y-83631815D01*
X161125856Y-83617614D01*
X161125835Y-83617640D01*
X161124944Y-83616879D01*
X161122837Y-83615181D01*
X161122137Y-83614481D01*
X161122132Y-83614477D01*
X160980984Y-83511928D01*
X160980983Y-83511927D01*
X160980981Y-83511926D01*
X160904872Y-83473146D01*
X160825516Y-83432711D01*
X160825513Y-83432710D01*
X160659575Y-83378795D01*
X160573407Y-83365147D01*
X160487241Y-83351500D01*
X159512759Y-83351500D01*
X159455314Y-83360598D01*
X159340424Y-83378795D01*
X159174486Y-83432710D01*
X159174483Y-83432711D01*
X159019015Y-83511928D01*
X158877867Y-83614477D01*
X158877862Y-83614481D01*
X158754481Y-83737862D01*
X158754477Y-83737867D01*
X158651928Y-83879015D01*
X158572711Y-84034483D01*
X158572710Y-84034486D01*
X158518795Y-84200424D01*
X158518795Y-84200426D01*
X158491500Y-84372759D01*
X158491500Y-84547241D01*
X158495565Y-84572906D01*
X158518795Y-84719575D01*
X158572710Y-84885513D01*
X158572711Y-84885516D01*
X158651928Y-85040984D01*
X158754477Y-85182132D01*
X158754481Y-85182137D01*
X158877862Y-85305518D01*
X158877867Y-85305522D01*
X158925346Y-85340017D01*
X159019019Y-85408074D01*
X159120646Y-85459856D01*
X159174483Y-85487288D01*
X159174486Y-85487289D01*
X159239769Y-85508500D01*
X159340426Y-85541205D01*
X159512759Y-85568500D01*
X159512760Y-85568500D01*
X160487240Y-85568500D01*
X160487241Y-85568500D01*
X160659574Y-85541205D01*
X160825516Y-85487288D01*
X160980981Y-85408074D01*
X161122139Y-85305517D01*
X161122837Y-85304819D01*
X161123167Y-85304638D01*
X161125835Y-85302360D01*
X161126313Y-85302920D01*
X161184160Y-85271334D01*
X161210518Y-85268500D01*
X162119631Y-85268500D01*
X162119632Y-85268499D01*
X162275831Y-85237430D01*
X162352486Y-85205678D01*
X162422968Y-85176484D01*
X162555389Y-85088003D01*
X164628003Y-83015389D01*
X164716484Y-82882968D01*
X164726158Y-82859614D01*
X164777428Y-82735835D01*
X164777428Y-82735834D01*
X164777430Y-82735830D01*
X164780281Y-82721500D01*
X164795919Y-82642881D01*
X164808501Y-82579630D01*
X164808501Y-82420370D01*
X164808501Y-82415260D01*
X164808500Y-82415234D01*
X164808500Y-66920369D01*
X164808499Y-66920365D01*
X164790163Y-66828185D01*
X164777430Y-66764169D01*
X164734275Y-66659984D01*
X164734274Y-66659982D01*
X164726905Y-66642192D01*
X164716484Y-66617031D01*
X164628003Y-66484611D01*
X164628000Y-66484607D01*
X163095392Y-64951999D01*
X163095388Y-64951996D01*
X162962974Y-64863519D01*
X162962970Y-64863517D01*
X162950474Y-64858341D01*
X162889399Y-64833043D01*
X162889397Y-64833042D01*
X162889396Y-64833041D01*
X162815831Y-64802570D01*
X162815823Y-64802568D01*
X162659634Y-64771500D01*
X162659630Y-64771500D01*
X160610381Y-64771500D01*
X160543342Y-64751815D01*
X160510063Y-64720386D01*
X160501460Y-64708545D01*
X160420620Y-64597278D01*
X160252722Y-64429380D01*
X160252718Y-64429376D01*
X160226487Y-64410319D01*
X160209303Y-64388036D01*
X160189699Y-64367862D01*
X160188401Y-64361457D01*
X160187725Y-64360677D01*
X160187614Y-64359911D01*
X160183820Y-64354990D01*
X160181411Y-64326955D01*
X160178794Y-64314038D01*
X164439500Y-64314038D01*
X164439500Y-64565962D01*
X164454392Y-64659984D01*
X164478910Y-64814785D01*
X164556760Y-65054383D01*
X164635251Y-65208429D01*
X164670954Y-65278500D01*
X164671132Y-65278848D01*
X164819201Y-65482649D01*
X164819205Y-65482654D01*
X164997345Y-65660794D01*
X164997350Y-65660798D01*
X165175117Y-65789952D01*
X165201155Y-65808870D01*
X165344184Y-65881747D01*
X165425616Y-65923239D01*
X165425618Y-65923239D01*
X165425621Y-65923241D01*
X165665215Y-66001090D01*
X165914038Y-66040500D01*
X165914039Y-66040500D01*
X166165961Y-66040500D01*
X166165962Y-66040500D01*
X166414785Y-66001090D01*
X166654379Y-65923241D01*
X166878845Y-65808870D01*
X167082656Y-65660793D01*
X167260793Y-65482656D01*
X167408870Y-65278845D01*
X167523241Y-65054379D01*
X167601090Y-64814785D01*
X167640500Y-64565962D01*
X167640500Y-64314038D01*
X167601090Y-64065215D01*
X167523241Y-63825621D01*
X167523239Y-63825618D01*
X167523239Y-63825616D01*
X167452358Y-63686506D01*
X167408870Y-63601155D01*
X167357173Y-63530000D01*
X167260798Y-63397350D01*
X167260794Y-63397345D01*
X167082654Y-63219205D01*
X167082649Y-63219201D01*
X166878848Y-63071132D01*
X166878847Y-63071131D01*
X166878845Y-63071130D01*
X166808747Y-63035413D01*
X166654383Y-62956760D01*
X166414785Y-62878910D01*
X166371132Y-62871996D01*
X166165962Y-62839500D01*
X165914038Y-62839500D01*
X165789626Y-62859205D01*
X165665214Y-62878910D01*
X165425616Y-62956760D01*
X165201151Y-63071132D01*
X164997350Y-63219201D01*
X164997345Y-63219205D01*
X164819205Y-63397345D01*
X164819201Y-63397350D01*
X164671132Y-63601151D01*
X164556760Y-63825616D01*
X164478910Y-64065214D01*
X164470703Y-64117032D01*
X164439500Y-64314038D01*
X160178794Y-64314038D01*
X160175826Y-64299384D01*
X160178079Y-64293596D01*
X160177781Y-64291519D01*
X160178274Y-64290437D01*
X160177840Y-64285376D01*
X160190969Y-64260492D01*
X160201178Y-64234276D01*
X160206113Y-64229480D01*
X160206806Y-64227963D01*
X160209380Y-64225600D01*
X160210446Y-64223581D01*
X160226490Y-64209679D01*
X160227638Y-64208845D01*
X160252718Y-64190623D01*
X160252723Y-64190619D01*
X160326310Y-64117032D01*
X160420620Y-64022722D01*
X160560185Y-63830627D01*
X160667982Y-63619063D01*
X160741356Y-63393241D01*
X160752857Y-63320627D01*
X160778500Y-63158727D01*
X160778500Y-62921272D01*
X160741356Y-62686758D01*
X160667980Y-62460932D01*
X160566766Y-62262289D01*
X160560185Y-62249373D01*
X160420620Y-62057278D01*
X160252722Y-61889380D01*
X160252718Y-61889376D01*
X160226487Y-61870319D01*
X160183820Y-61814990D01*
X160177840Y-61745376D01*
X160210446Y-61683581D01*
X160226487Y-61669681D01*
X160252718Y-61650623D01*
X160252718Y-61650622D01*
X160252722Y-61650620D01*
X160420620Y-61482722D01*
X160560185Y-61290627D01*
X160667982Y-61079063D01*
X160741356Y-60853241D01*
X160761055Y-60728869D01*
X160778500Y-60618727D01*
X160778500Y-60381272D01*
X160747993Y-60188666D01*
X160741356Y-60146759D01*
X160738072Y-60136651D01*
X160736073Y-60066810D01*
X160768318Y-60010649D01*
X161599003Y-59179966D01*
X161687484Y-59047545D01*
X161720225Y-58968500D01*
X161748430Y-58900408D01*
X161779500Y-58744207D01*
X161779500Y-53841367D01*
X161793015Y-53785072D01*
X161801799Y-53767834D01*
X161897982Y-53579063D01*
X161971356Y-53353241D01*
X162008500Y-53118727D01*
X162008500Y-52881272D01*
X161971356Y-52646758D01*
X161897980Y-52420932D01*
X161790184Y-52209372D01*
X161650620Y-52017278D01*
X161482722Y-51849380D01*
X161290627Y-51709815D01*
X161249120Y-51688666D01*
X161079067Y-51602019D01*
X160853241Y-51528643D01*
X160618727Y-51491500D01*
X160618722Y-51491500D01*
X160381278Y-51491500D01*
X160381273Y-51491500D01*
X160146758Y-51528643D01*
X159920932Y-51602019D01*
X159709372Y-51709815D01*
X159517275Y-51849382D01*
X159440181Y-51926477D01*
X159378858Y-51959962D01*
X159309166Y-51954978D01*
X159253233Y-51913106D01*
X159228816Y-51847642D01*
X159228500Y-51838796D01*
X159228500Y-50810380D01*
X159248185Y-50743341D01*
X159279612Y-50710064D01*
X159402722Y-50620620D01*
X159570620Y-50452722D01*
X159589681Y-50426487D01*
X159645010Y-50383820D01*
X159714624Y-50377840D01*
X159776419Y-50410446D01*
X159790319Y-50426487D01*
X159809376Y-50452718D01*
X159809379Y-50452721D01*
X159809380Y-50452722D01*
X159977278Y-50620620D01*
X160169373Y-50760185D01*
X160199323Y-50775445D01*
X160380932Y-50867980D01*
X160380934Y-50867980D01*
X160380937Y-50867982D01*
X160500662Y-50906883D01*
X160606758Y-50941356D01*
X160841273Y-50978500D01*
X160841278Y-50978500D01*
X161078727Y-50978500D01*
X161313241Y-50941356D01*
X161338764Y-50933063D01*
X161539063Y-50867982D01*
X161750627Y-50760185D01*
X161942722Y-50620620D01*
X162110620Y-50452722D01*
X162129681Y-50426487D01*
X162185010Y-50383820D01*
X162254624Y-50377840D01*
X162316419Y-50410446D01*
X162330319Y-50426487D01*
X162349376Y-50452718D01*
X162349379Y-50452721D01*
X162349380Y-50452722D01*
X162517278Y-50620620D01*
X162709373Y-50760185D01*
X162739323Y-50775445D01*
X162920932Y-50867980D01*
X162920934Y-50867980D01*
X162920937Y-50867982D01*
X163040662Y-50906883D01*
X163146758Y-50941356D01*
X163381273Y-50978500D01*
X163381278Y-50978500D01*
X163618727Y-50978500D01*
X163853241Y-50941356D01*
X163878764Y-50933063D01*
X164079063Y-50867982D01*
X164290627Y-50760185D01*
X164482722Y-50620620D01*
X164650620Y-50452722D01*
X164790185Y-50260627D01*
X164897982Y-50049063D01*
X164971356Y-49823241D01*
X164972760Y-49814379D01*
X165008500Y-49588727D01*
X165008500Y-48811272D01*
X164986891Y-48674843D01*
X164971356Y-48576759D01*
X164967979Y-48566365D01*
X164965982Y-48496524D01*
X165002061Y-48436690D01*
X165064761Y-48405861D01*
X165134175Y-48413823D01*
X165173590Y-48440363D01*
X165928181Y-49194954D01*
X165961666Y-49256277D01*
X165964500Y-49282635D01*
X165964500Y-59344982D01*
X165964500Y-59375018D01*
X165975994Y-59402767D01*
X165975995Y-59402768D01*
X168468181Y-61894954D01*
X168501666Y-61956277D01*
X168504500Y-61982635D01*
X168504500Y-96107364D01*
X168484815Y-96174403D01*
X168468181Y-96195045D01*
X165997233Y-98665994D01*
X165975995Y-98687231D01*
X165964500Y-98714982D01*
X165964500Y-99231907D01*
X165963903Y-99244062D01*
X165952505Y-99359778D01*
X165947764Y-99383615D01*
X165915787Y-99489028D01*
X165906486Y-99511482D01*
X165854561Y-99608627D01*
X165841056Y-99628839D01*
X165771176Y-99713988D01*
X165753988Y-99731176D01*
X165668839Y-99801056D01*
X165648627Y-99814561D01*
X165551482Y-99866486D01*
X165529028Y-99875787D01*
X165487038Y-99888525D01*
X165423618Y-99907763D01*
X165399778Y-99912505D01*
X165291162Y-99923203D01*
X165284060Y-99923903D01*
X165271907Y-99924500D01*
X100768093Y-99924500D01*
X100755939Y-99923903D01*
X100747995Y-99923120D01*
X100640221Y-99912505D01*
X100616381Y-99907763D01*
X100599445Y-99902625D01*
X100510968Y-99875786D01*
X100488517Y-99866486D01*
X100391372Y-99814561D01*
X100371160Y-99801056D01*
X100286011Y-99731175D01*
X100268823Y-99713987D01*
X100198944Y-99628839D01*
X100185439Y-99608628D01*
X100133510Y-99511476D01*
X100124213Y-99489032D01*
X100092233Y-99383607D01*
X100087494Y-99359778D01*
X100076097Y-99244068D01*
X100075500Y-99231914D01*
X100075500Y-97334038D01*
X112369500Y-97334038D01*
X112369500Y-97585961D01*
X112408910Y-97834785D01*
X112486760Y-98074383D01*
X112601132Y-98298848D01*
X112749201Y-98502649D01*
X112749205Y-98502654D01*
X112927345Y-98680794D01*
X112927350Y-98680798D01*
X113038115Y-98761273D01*
X113131155Y-98828870D01*
X113274184Y-98901747D01*
X113355616Y-98943239D01*
X113355618Y-98943239D01*
X113355621Y-98943241D01*
X113595215Y-99021090D01*
X113844038Y-99060500D01*
X113844039Y-99060500D01*
X114095961Y-99060500D01*
X114095962Y-99060500D01*
X114344785Y-99021090D01*
X114584379Y-98943241D01*
X114808845Y-98828870D01*
X115012656Y-98680793D01*
X115190793Y-98502656D01*
X115338870Y-98298845D01*
X115453241Y-98074379D01*
X115531090Y-97834785D01*
X115570500Y-97585962D01*
X115570500Y-97334038D01*
X115531090Y-97085215D01*
X115453241Y-96845621D01*
X115453239Y-96845618D01*
X115453239Y-96845616D01*
X115411747Y-96764184D01*
X115338870Y-96621155D01*
X115319952Y-96595117D01*
X115190798Y-96417350D01*
X115190794Y-96417345D01*
X115012654Y-96239205D01*
X115012649Y-96239201D01*
X114808848Y-96091132D01*
X114808847Y-96091131D01*
X114808845Y-96091130D01*
X114738747Y-96055413D01*
X114584383Y-95976760D01*
X114344785Y-95898910D01*
X114317617Y-95894607D01*
X114095962Y-95859500D01*
X113844038Y-95859500D01*
X113719626Y-95879205D01*
X113595214Y-95898910D01*
X113355616Y-95976760D01*
X113131151Y-96091132D01*
X112927350Y-96239201D01*
X112927345Y-96239205D01*
X112749205Y-96417345D01*
X112749201Y-96417350D01*
X112601132Y-96621151D01*
X112486760Y-96845616D01*
X112408910Y-97085214D01*
X112369500Y-97334038D01*
X100075500Y-97334038D01*
X100075500Y-47428092D01*
X100076097Y-47415938D01*
X100083624Y-47339513D01*
X100087494Y-47300220D01*
X100092234Y-47276389D01*
X100124216Y-47170959D01*
X100133508Y-47148526D01*
X100185442Y-47051365D01*
X100198938Y-47031166D01*
X100268827Y-46946006D01*
X100286006Y-46928827D01*
X100371166Y-46858938D01*
X100391365Y-46845442D01*
X100488526Y-46793508D01*
X100510959Y-46784216D01*
X100616389Y-46752234D01*
X100640220Y-46747494D01*
X100755939Y-46736097D01*
X100768093Y-46735500D01*
X100786531Y-46735500D01*
X163417365Y-46735500D01*
X163484404Y-46755185D01*
G37*
%TD.AperFunction*%
%TA.AperFunction,Conductor*%
G36*
X142714075Y-97267007D02*
G01*
X142680000Y-97394174D01*
X142680000Y-97525826D01*
X142714075Y-97652993D01*
X142746988Y-97710000D01*
X141073012Y-97710000D01*
X141105925Y-97652993D01*
X141140000Y-97525826D01*
X141140000Y-97394174D01*
X141105925Y-97267007D01*
X141073012Y-97210000D01*
X142746988Y-97210000D01*
X142714075Y-97267007D01*
G37*
%TD.AperFunction*%
%TA.AperFunction,Conductor*%
G36*
X111998610Y-82828185D02*
G01*
X112044365Y-82880989D01*
X112054309Y-82950147D01*
X112025284Y-83013703D01*
X112007057Y-83030876D01*
X111937671Y-83084116D01*
X111937671Y-83084117D01*
X112953554Y-84100000D01*
X112947339Y-84100000D01*
X112845606Y-84127259D01*
X112754394Y-84179920D01*
X112679920Y-84254394D01*
X112627259Y-84345606D01*
X112600000Y-84447339D01*
X112600000Y-84453553D01*
X111584117Y-83437671D01*
X111584116Y-83437671D01*
X111525140Y-83514533D01*
X111525134Y-83514541D01*
X111409132Y-83715461D01*
X111409124Y-83715478D01*
X111320336Y-83929832D01*
X111260286Y-84153946D01*
X111260283Y-84153959D01*
X111230001Y-84383977D01*
X111230000Y-84383994D01*
X111230000Y-84616005D01*
X111230001Y-84616022D01*
X111260283Y-84846040D01*
X111260286Y-84846053D01*
X111320336Y-85070167D01*
X111409124Y-85284521D01*
X111409132Y-85284538D01*
X111525136Y-85485461D01*
X111525142Y-85485469D01*
X111584117Y-85562327D01*
X112600000Y-84546445D01*
X112600000Y-84552661D01*
X112627259Y-84654394D01*
X112679920Y-84745606D01*
X112754394Y-84820080D01*
X112845606Y-84872741D01*
X112947339Y-84900000D01*
X112953554Y-84900000D01*
X111898372Y-85955181D01*
X111837049Y-85988666D01*
X111810691Y-85991500D01*
X110323042Y-85991500D01*
X110256003Y-85971815D01*
X110210248Y-85919011D01*
X110200304Y-85849853D01*
X110229329Y-85786297D01*
X110235361Y-85779819D01*
X110340011Y-85675168D01*
X110340016Y-85675163D01*
X110481942Y-85490202D01*
X110598511Y-85288298D01*
X110600069Y-85284538D01*
X110632734Y-85205676D01*
X110687729Y-85072907D01*
X110748069Y-84847713D01*
X110778500Y-84616569D01*
X110778500Y-84383431D01*
X110748069Y-84152287D01*
X110687729Y-83927093D01*
X110667816Y-83879019D01*
X110598514Y-83711708D01*
X110598509Y-83711698D01*
X110481942Y-83509798D01*
X110340017Y-83324838D01*
X110340011Y-83324831D01*
X110175168Y-83159988D01*
X110175161Y-83159982D01*
X110006907Y-83030876D01*
X109965704Y-82974448D01*
X109961549Y-82904702D01*
X109995761Y-82843782D01*
X110057479Y-82811029D01*
X110082393Y-82808500D01*
X111931571Y-82808500D01*
X111998610Y-82828185D01*
G37*
%TD.AperFunction*%
%TA.AperFunction,Conductor*%
G36*
X149616419Y-50410446D02*
G01*
X149630319Y-50426487D01*
X149649376Y-50452718D01*
X149649379Y-50452721D01*
X149649380Y-50452722D01*
X149817278Y-50620620D01*
X149903466Y-50683239D01*
X150009374Y-50760186D01*
X150107886Y-50810380D01*
X150210886Y-50862860D01*
X150242272Y-50885664D01*
X155859579Y-56502971D01*
X155893064Y-56564294D01*
X155895898Y-56590652D01*
X155895898Y-58318142D01*
X155876213Y-58385181D01*
X155859579Y-58405823D01*
X153871999Y-60393402D01*
X153871996Y-60393406D01*
X153783519Y-60525820D01*
X153783514Y-60525830D01*
X153759534Y-60583724D01*
X153732654Y-60623952D01*
X151701427Y-62655181D01*
X151640104Y-62688666D01*
X151613746Y-62691500D01*
X146420365Y-62691500D01*
X146264176Y-62722568D01*
X146264168Y-62722570D01*
X146208013Y-62745831D01*
X146208012Y-62745831D01*
X146117031Y-62783516D01*
X146117028Y-62783517D01*
X145984611Y-62871996D01*
X145984607Y-62871999D01*
X143871996Y-64984610D01*
X143783516Y-65117031D01*
X143783513Y-65117036D01*
X143770904Y-65147481D01*
X143770903Y-65147484D01*
X143722570Y-65264168D01*
X143722568Y-65264176D01*
X143691500Y-65420365D01*
X143691500Y-66579634D01*
X143722568Y-66735823D01*
X143722571Y-66735835D01*
X143744302Y-66788297D01*
X143744303Y-66788299D01*
X143783516Y-66882968D01*
X143783517Y-66882971D01*
X143871996Y-67015388D01*
X143871999Y-67015392D01*
X145984610Y-69128003D01*
X146055198Y-69175168D01*
X146117032Y-69216484D01*
X146145761Y-69228383D01*
X146190602Y-69246957D01*
X146264169Y-69277430D01*
X146420365Y-69308499D01*
X146420369Y-69308500D01*
X146931571Y-69308500D01*
X146998610Y-69328185D01*
X147044365Y-69380989D01*
X147054309Y-69450147D01*
X147025284Y-69513703D01*
X147007057Y-69530876D01*
X146937671Y-69584116D01*
X146937671Y-69584117D01*
X147953554Y-70600000D01*
X147947339Y-70600000D01*
X147845606Y-70627259D01*
X147754394Y-70679920D01*
X147679920Y-70754394D01*
X147627259Y-70845606D01*
X147600000Y-70947339D01*
X147600000Y-70953554D01*
X146584117Y-69937671D01*
X146584116Y-69937671D01*
X146525140Y-70014533D01*
X146525134Y-70014541D01*
X146409132Y-70215461D01*
X146409124Y-70215478D01*
X146320336Y-70429832D01*
X146260286Y-70653946D01*
X146260283Y-70653959D01*
X146230001Y-70883977D01*
X146230000Y-70883994D01*
X146230000Y-71116005D01*
X146230001Y-71116022D01*
X146260283Y-71346040D01*
X146260286Y-71346053D01*
X146320336Y-71570167D01*
X146409124Y-71784521D01*
X146409132Y-71784538D01*
X146525136Y-71985461D01*
X146525142Y-71985469D01*
X146584117Y-72062327D01*
X147600000Y-71046445D01*
X147600000Y-71052661D01*
X147627259Y-71154394D01*
X147679920Y-71245606D01*
X147754394Y-71320080D01*
X147845606Y-71372741D01*
X147947339Y-71400000D01*
X147953554Y-71400000D01*
X146937671Y-72415881D01*
X146940474Y-72458649D01*
X146925215Y-72526832D01*
X146875517Y-72575942D01*
X146816739Y-72590758D01*
X146386254Y-72590758D01*
X146319215Y-72571073D01*
X146298573Y-72554439D01*
X143445561Y-69701427D01*
X143412076Y-69640104D01*
X143409242Y-69613746D01*
X143409242Y-63686506D01*
X143409243Y-63686485D01*
X143409243Y-63521109D01*
X143378173Y-63364917D01*
X143378172Y-63364916D01*
X143378172Y-63364912D01*
X143359829Y-63320627D01*
X143317229Y-63217780D01*
X143317222Y-63217767D01*
X143228745Y-63085353D01*
X143228742Y-63085349D01*
X141231073Y-61087680D01*
X141197588Y-61026357D01*
X141202572Y-60956665D01*
X141231071Y-60912320D01*
X143248003Y-58895389D01*
X143336484Y-58762968D01*
X143379579Y-58658926D01*
X143397430Y-58615831D01*
X143412700Y-58539063D01*
X143428501Y-58459630D01*
X143428501Y-58300370D01*
X143428501Y-58295260D01*
X143428500Y-58295234D01*
X143428500Y-58040379D01*
X143430041Y-58035129D01*
X143428955Y-58029768D01*
X143439780Y-58001963D01*
X143448185Y-57973340D01*
X143452845Y-57968405D01*
X143454304Y-57964659D01*
X143479610Y-57940064D01*
X143527410Y-57905336D01*
X143593213Y-57881858D01*
X143661267Y-57897683D01*
X143702821Y-57939833D01*
X143703796Y-57939104D01*
X143709110Y-57946203D01*
X143709111Y-57946204D01*
X143796739Y-58063261D01*
X143913796Y-58150889D01*
X144050799Y-58201989D01*
X144078050Y-58204918D01*
X144111345Y-58208499D01*
X144111362Y-58208500D01*
X146208638Y-58208500D01*
X146208654Y-58208499D01*
X146235692Y-58205591D01*
X146269201Y-58201989D01*
X146406204Y-58150889D01*
X146523261Y-58063261D01*
X146610889Y-57946204D01*
X146661989Y-57809201D01*
X146665591Y-57775692D01*
X146668499Y-57748654D01*
X146668500Y-57748637D01*
X146668500Y-55251362D01*
X146668499Y-55251345D01*
X146663335Y-55203322D01*
X146661989Y-55190799D01*
X146648946Y-55155831D01*
X146634475Y-55117032D01*
X146610889Y-55053796D01*
X146523261Y-54936739D01*
X146406204Y-54849111D01*
X146373557Y-54836934D01*
X146269203Y-54798011D01*
X146208654Y-54791500D01*
X146208638Y-54791500D01*
X144111362Y-54791500D01*
X144111345Y-54791500D01*
X144050797Y-54798011D01*
X144050795Y-54798011D01*
X143913795Y-54849111D01*
X143796739Y-54936739D01*
X143703796Y-55060896D01*
X143702767Y-55060126D01*
X143659722Y-55103174D01*
X143591449Y-55118027D01*
X143527408Y-55094661D01*
X143410627Y-55009815D01*
X143374142Y-54991225D01*
X143199067Y-54902019D01*
X142973241Y-54828643D01*
X142738727Y-54791500D01*
X142738722Y-54791500D01*
X142501278Y-54791500D01*
X142501273Y-54791500D01*
X142266758Y-54828643D01*
X142040932Y-54902019D01*
X141829372Y-55009815D01*
X141637275Y-55149382D01*
X141469382Y-55317275D01*
X141329815Y-55509372D01*
X141240701Y-55684267D01*
X141217897Y-55715653D01*
X140480000Y-56453550D01*
X140480000Y-56447339D01*
X140452741Y-56345606D01*
X140400080Y-56254394D01*
X140325606Y-56179920D01*
X140234394Y-56127259D01*
X140132661Y-56100000D01*
X140126448Y-56100000D01*
X141063884Y-55162564D01*
X141057186Y-55155866D01*
X140866171Y-55017085D01*
X140655802Y-54909897D01*
X140431247Y-54836934D01*
X140431248Y-54836934D01*
X140198052Y-54800000D01*
X140142752Y-54800000D01*
X140075713Y-54780315D01*
X140029958Y-54727511D01*
X140020014Y-54658353D01*
X140049039Y-54594797D01*
X140055060Y-54588330D01*
X140298572Y-54344819D01*
X140359895Y-54311334D01*
X140386253Y-54308500D01*
X146339631Y-54308500D01*
X146339632Y-54308499D01*
X146495831Y-54277430D01*
X146569399Y-54246956D01*
X146642968Y-54216484D01*
X146775389Y-54128003D01*
X148888003Y-52015389D01*
X148976484Y-51882968D01*
X149012760Y-51795389D01*
X149037430Y-51735831D01*
X149068500Y-51579630D01*
X149068500Y-50810380D01*
X149088185Y-50743341D01*
X149119612Y-50710064D01*
X149242722Y-50620620D01*
X149410620Y-50452722D01*
X149429681Y-50426487D01*
X149485010Y-50383820D01*
X149554624Y-50377840D01*
X149616419Y-50410446D01*
G37*
%TD.AperFunction*%
%TA.AperFunction,Conductor*%
G36*
X157456658Y-63868185D02*
G01*
X157489935Y-63899612D01*
X157579380Y-64022722D01*
X157747278Y-64190620D01*
X157747284Y-64190624D01*
X157773515Y-64209683D01*
X157816181Y-64265013D01*
X157822159Y-64334626D01*
X157789553Y-64396421D01*
X157773515Y-64410317D01*
X157747284Y-64429375D01*
X157747275Y-64429382D01*
X157579382Y-64597275D01*
X157439815Y-64789372D01*
X157332019Y-65000932D01*
X157258643Y-65226758D01*
X157221500Y-65461272D01*
X157221500Y-65698727D01*
X157244346Y-65842975D01*
X157235391Y-65912268D01*
X157209554Y-65950053D01*
X156300996Y-66858611D01*
X156212516Y-66991032D01*
X156212513Y-66991037D01*
X156202429Y-67015386D01*
X156202428Y-67015389D01*
X156151570Y-67138169D01*
X156151568Y-67138177D01*
X156120500Y-67294366D01*
X156120500Y-72466758D01*
X156100815Y-72533797D01*
X156048011Y-72579552D01*
X155996500Y-72590758D01*
X149183260Y-72590758D01*
X149116221Y-72571073D01*
X149070466Y-72518269D01*
X149059525Y-72458649D01*
X149062327Y-72415880D01*
X148046446Y-71400000D01*
X148052661Y-71400000D01*
X148154394Y-71372741D01*
X148245606Y-71320080D01*
X148320080Y-71245606D01*
X148372741Y-71154394D01*
X148400000Y-71052661D01*
X148400000Y-71046447D01*
X149415880Y-72062327D01*
X149415883Y-72062327D01*
X149474855Y-71985475D01*
X149590867Y-71784538D01*
X149590875Y-71784521D01*
X149679663Y-71570167D01*
X149739713Y-71346053D01*
X149739716Y-71346040D01*
X149769998Y-71116022D01*
X149770000Y-71116005D01*
X149770000Y-70883994D01*
X149769998Y-70883977D01*
X149739716Y-70653959D01*
X149739713Y-70653946D01*
X149679663Y-70429832D01*
X149590875Y-70215478D01*
X149590867Y-70215461D01*
X149474863Y-70014538D01*
X149474857Y-70014530D01*
X149415881Y-69937671D01*
X148400000Y-70953552D01*
X148400000Y-70947339D01*
X148372741Y-70845606D01*
X148320080Y-70754394D01*
X148245606Y-70679920D01*
X148154394Y-70627259D01*
X148052661Y-70600000D01*
X148046447Y-70600000D01*
X149062327Y-69584117D01*
X148992942Y-69530876D01*
X148951740Y-69474448D01*
X148947585Y-69404702D01*
X148981797Y-69343781D01*
X149043515Y-69311029D01*
X149068429Y-69308500D01*
X151579631Y-69308500D01*
X151579632Y-69308499D01*
X151735831Y-69277430D01*
X151809399Y-69246956D01*
X151882968Y-69216484D01*
X152015389Y-69128003D01*
X157258573Y-63884819D01*
X157285500Y-63870115D01*
X157311319Y-63853523D01*
X157317519Y-63852631D01*
X157319896Y-63851334D01*
X157346254Y-63848500D01*
X157389619Y-63848500D01*
X157456658Y-63868185D01*
G37*
%TD.AperFunction*%
%TD*%
M02*
